<svg width="40" height="90" viewBox="0 0 40 90" fill="none" xmlns="http://www.w3.org/2000/svg">
<g filter="url(#filter0_bd_105_58439)">
<path d="M69.8881 42.0005C69.8881 55.7349 58.7544 66.8689 45.0201 66.8689C31.2857 66.8689 20.1519 55.7349 20.1519 42.0005C20.1519 28.2662 31.2857 17.1323 45.0201 17.1323C58.7543 17.1323 69.8881 28.2662 69.8881 42.0005Z" fill="#3CC8C8" fill-opacity="0.2" shape-rendering="crispEdges"/>
</g>
<path fill-rule="evenodd" clip-rule="evenodd" d="M46.6935 29.6898C47.0275 29.0553 46.2601 28.2871 45.6314 28.6182C45.1199 28.8241 44.9901 29.5719 45.3882 29.9503C45.7639 30.3445 46.4995 30.207 46.6935 29.6898ZM39.6956 29.9696C39.7345 29.5491 39.251 29.1957 38.8691 29.3545C38.3375 29.4976 38.2785 30.3433 38.7943 30.5451C39.1835 30.762 39.7361 30.426 39.6956 29.9696ZM52.7191 30.558C52.1223 30.4852 52.0278 29.5373 52.6024 29.3465C53.0481 29.1269 53.457 29.5386 53.5222 29.9653C53.4287 30.3297 53.1267 30.6633 52.7191 30.558ZM41.8592 33.2104C41.9574 32.4613 41.0463 31.8538 40.4078 32.2617C39.8098 32.5706 39.7276 33.4921 40.2702 33.8937C40.8314 34.4051 41.826 33.9668 41.8592 33.2104ZM50.1551 32.6946C50.44 31.953 51.5943 31.9306 51.9185 32.6525C52.239 33.2143 51.8448 33.9099 51.2738 34.1009C50.5174 34.2435 49.799 33.4176 50.1551 32.6946ZM45.9854 32.9031C45.3856 32.9465 44.8109 33.4214 44.8171 34.0588C44.7829 34.5797 45.1513 35.0051 45.5887 35.222C45.6328 35.2247 45.6774 35.2282 45.7223 35.2318C45.9693 35.2517 46.226 35.2722 46.4483 35.1464C47.023 34.8897 47.3054 34.1196 46.9873 33.5603C46.8167 33.1548 46.3832 32.9836 45.9854 32.9031ZM34.7605 34.9875C35.3438 34.6253 36.1307 35.2863 35.9099 35.9263C35.7883 36.4799 35.0516 36.7052 34.6304 36.3517C34.1809 36.0206 34.2521 35.2244 34.7605 34.9875ZM57.6082 35.6747C57.6672 35.0436 56.8505 34.5984 56.3557 34.9865C55.8478 35.3014 55.9031 36.1422 56.4441 36.3878C56.9353 36.6842 57.6413 36.2502 57.6082 35.6747ZM47.6452 36.1321C48.4618 35.8358 49.4318 36.1904 49.8972 36.9259C50.5112 37.8249 50.1845 39.1941 49.2317 39.7099C48.2445 40.3201 46.8029 39.8029 46.4383 38.6893C46.0243 37.6923 46.6273 36.4446 47.6452 36.1321ZM45.4141 37.0959C44.9769 36.1607 43.7589 35.7987 42.8538 36.2302C41.8892 36.6654 41.4454 37.949 41.9452 38.8941C42.3908 39.8714 43.6901 40.2719 44.611 39.7436C45.5308 39.2736 45.9285 38.0061 45.4141 37.0959ZM38.0562 37.8871C38.125 37.2981 38.6751 36.9148 39.2301 36.8751C39.8281 36.948 40.3058 37.4171 40.3709 38.0284C40.3316 38.6336 39.8687 39.2251 39.2337 39.2214C38.5352 39.2822 37.9228 38.5803 38.0562 37.8871ZM53.9077 38.0275C53.9396 37.1953 52.9438 36.5815 52.2267 37.0031C51.4568 37.3698 51.3989 38.5827 52.1407 39.0133C52.8548 39.5305 53.9569 38.9092 53.9077 38.0275ZM40.904 40.1108C41.7428 39.8777 42.7017 40.277 43.1131 41.0557C43.5637 41.8395 43.3795 42.9284 42.6797 43.5032C41.7821 44.3465 40.1268 44.0079 39.6491 42.8571C39.1002 41.8022 39.7669 40.3884 40.904 40.1108ZM52.2034 40.9385C51.7651 40.1882 50.8072 39.8708 49.9919 40.1063C48.8463 40.4232 48.2396 41.8914 48.8425 42.9303C49.3398 43.9347 50.7397 44.272 51.6435 43.6296C52.5063 43.0765 52.7829 41.7966 52.2034 40.9385ZM35.5097 41.0853C36.2342 40.8085 37.0372 41.616 36.7437 42.3415C36.5645 43.0025 35.6422 43.2468 35.1658 42.7595C34.6084 42.3019 34.8148 41.2837 35.5097 41.0853ZM56.1805 40.9614C55.5649 40.9949 55.1257 41.532 55.1467 42.1383C55.267 42.4211 55.4131 42.7162 55.6979 42.8625C56.3057 43.2011 57.1653 42.7113 57.1199 41.9907C57.1591 41.4451 56.6767 41.0408 56.1805 40.9614ZM31.9474 41.4412C32.3832 41.249 32.9224 41.6306 32.8229 42.1195C32.7995 42.6731 31.9904 42.886 31.6931 42.4234C31.4305 42.1022 31.5877 41.6068 31.9474 41.4412ZM60.3505 41.7303C60.2289 41.3681 59.7365 41.2094 59.4296 41.4302C58.9189 41.7054 59.1191 42.6579 59.7378 42.6009C60.1786 42.6678 60.5568 42.1258 60.3505 41.7303ZM43.2713 44.0876C44.4183 43.7863 45.6511 44.7524 45.6584 45.9453C45.7332 47.1507 44.5189 48.2196 43.3449 47.9412C42.4374 47.7936 41.7253 46.9106 41.7547 45.9843C41.7523 45.0984 42.4142 44.275 43.2713 44.0876ZM50.2288 45.9604C50.2472 44.74 48.9776 43.7566 47.8135 44.0852C47.1233 44.2585 46.5389 44.8331 46.3864 45.5396C46.0844 46.6 46.8826 47.8004 47.9643 47.9417C49.1139 48.1765 50.2902 47.1435 50.2288 45.9604ZM39.056 44.8194C39.8615 44.6805 40.6167 45.5883 40.29 46.3609C40.0517 47.1842 38.8656 47.4075 38.3412 46.735C37.726 46.0892 38.1852 44.9085 39.056 44.8194ZM53.9211 45.9669C53.9763 45.1795 53.0946 44.5518 52.3764 44.8557C51.5082 45.1344 51.3634 46.4713 52.159 46.9255C52.8614 47.4315 53.9499 46.8337 53.9211 45.9669ZM56.0996 48.6278C55.8183 48.0983 56.3292 47.3963 56.9113 47.4944C57.185 47.4897 57.381 47.6953 57.5582 47.8811L57.5892 47.9135L57.5958 47.9672C57.6334 48.2692 57.6766 48.6154 57.4333 48.8436C57.0831 49.2913 56.2898 49.1635 56.0996 48.6278ZM35.9628 48.4641C36.0851 47.8216 35.3022 47.276 34.7582 47.6418C34.24 47.9086 34.2215 48.7419 34.7224 49.0346C35.1892 49.357 35.8978 49.0323 35.9628 48.4641ZM45.5062 48.8312C46.2184 48.5138 47.1258 49.1401 47.0583 49.9325C47.111 50.8081 45.9888 51.4144 45.2924 50.8886C44.5189 50.4371 44.6479 49.1089 45.5062 48.8312ZM41.8935 50.9246C41.9488 50.2388 41.1347 49.682 40.5281 50.0044C40.1007 50.1657 39.9265 50.6419 39.919 51.0695C40.0651 51.4619 40.3622 51.8744 40.8179 51.8844C41.3679 51.9675 41.912 51.4876 41.8935 50.9246ZM50.6119 50.0143C51.2357 49.6249 52.1223 50.1841 52.0633 50.9175C52.0793 51.684 51.0773 52.175 50.4965 51.6715C49.9342 51.2768 50.0028 50.3281 50.6119 50.0143ZM52.8653 53.3614C52.4147 53.4582 52.088 53.9691 52.3655 54.3932C52.6504 54.8856 53.4817 54.7095 53.5345 54.1353C53.6107 53.7111 53.2276 53.4359 52.8653 53.3614ZM38.4456 54.0249C38.5561 53.6888 38.8238 53.3548 39.2155 53.4422C39.7865 53.4831 39.956 54.3524 39.4562 54.6204C39.0068 54.9265 38.4854 54.5073 38.4456 54.0249ZM46.3277 53.9356C45.9077 53.6714 45.2705 53.9133 45.1612 54.4105C44.9614 54.9128 45.4411 55.5201 45.9729 55.4571C46.2591 55.4646 46.48 55.2587 46.6519 55.0528C46.6854 54.914 46.7194 54.775 46.7575 54.6362L46.7552 54.6274C46.6845 54.3627 46.6022 54.0546 46.3277 53.9356Z" fill="#3CC8C8"/>
<defs>
<filter id="filter0_bd_105_58439" x="0.224535" y="0.157199" width="89.591" height="89.5912" filterUnits="userSpaceOnUse" color-interpolation-filters="sRGB">
<feFlood flood-opacity="0" result="BackgroundImageFix"/>
<feGaussianBlur in="BackgroundImage" stdDeviation="3.69024"/>
<feComposite in2="SourceAlpha" operator="in" result="effect1_backgroundBlur_105_58439"/>
<feColorMatrix in="SourceAlpha" type="matrix" values="0 0 0 0 0 0 0 0 0 0 0 0 0 0 0 0 0 0 127 0" result="hardAlpha"/>
<feOffset dy="2.9522"/>
<feGaussianBlur stdDeviation="9.96366"/>
<feComposite in2="hardAlpha" operator="out"/>
<feColorMatrix type="matrix" values="0 0 0 0 0.235294 0 0 0 0 0.784314 0 0 0 0 0.784314 0 0 0 0.29 0"/>
<feBlend mode="normal" in2="effect1_backgroundBlur_105_58439" result="effect2_dropShadow_105_58439"/>
<feBlend mode="normal" in="SourceGraphic" in2="effect2_dropShadow_105_58439" result="shape"/>
</filter>
</defs>
</svg>
