<svg width="32" height="14" viewBox="0 0 32 14" fill="none" xmlns="http://www.w3.org/2000/svg">
<path fill-rule="evenodd" clip-rule="evenodd" d="M2.85348 13.6888C4.07641 13.6888 5.06779 12.6775 5.06779 11.4301C5.06779 10.1826 4.07641 9.17139 2.85348 9.17139C1.63054 9.17139 0.63916 10.1826 0.63916 11.4301C0.63916 12.6775 1.63054 13.6888 2.85348 13.6888Z" fill="#4A90E2"/>
<path fill-rule="evenodd" clip-rule="evenodd" d="M16.0468 4.74813H16.2318C17.3381 4.84247 18.2149 5.78405 18.2611 6.9125C18.2611 8.18245 17.2918 9.17121 16.0468 9.17121C14.8018 9.17121 13.8325 8.13528 13.8325 6.9125C13.8325 5.31235 13.3256 4.70096 11.6182 4.70096C9.91077 4.70096 9.40388 5.31235 9.40388 6.95967V7.10118C9.35763 8.22962 8.38831 9.17121 7.2358 9.17121C5.9908 9.17121 5.02148 8.13528 5.02148 6.9125C5.02148 5.73688 5.89832 4.7953 7.00459 4.70096H7.18956C9.12642 4.70096 9.40388 4.27825 9.40388 2.48942C9.40388 1.21946 10.4194 0.230713 11.6182 0.230713C12.8632 0.230713 13.8325 1.26663 13.8325 2.48942C13.8325 4.27825 14.11 4.74813 16.0468 4.74813ZM27.0258 2.48942C27.0258 1.21947 28.0413 0.230715 29.2401 0.230715C30.4388 0.230715 31.4081 1.21947 31.4081 2.39508C31.4081 3.66504 30.3926 4.65379 29.1938 4.65379C27.4864 4.65379 26.9795 5.26518 26.9795 6.9125V7.05401C26.9333 8.22963 25.964 9.17121 24.8114 9.17121H24.7652C23.104 9.21838 22.5971 9.82977 22.5971 11.4299V11.6186C22.5509 12.747 21.5816 13.6886 20.429 13.6886C19.184 13.6886 18.2147 12.6527 18.2147 11.4299C18.2147 10.3015 19.0916 9.35989 20.1978 9.21838C20.2441 9.17121 20.3366 9.17121 20.429 9.17121C22.3197 9.17121 22.6434 8.74849 22.6434 7.00684V6.95967C22.6434 5.78405 23.5202 4.84247 24.6265 4.74813H24.8114C26.7483 4.74813 27.0258 4.27825 27.0258 2.48942Z" fill="#4A90E2"/>
</svg>
