<svg width="30" height="30" viewBox="0 0 30 30" fill="none" xmlns="http://www.w3.org/2000/svg">
<path fill-rule="evenodd" clip-rule="evenodd" d="M2.54625 14.1165C10.2981 10.7392 15.4672 8.51261 18.0536 7.43685C25.4382 4.36533 26.9727 3.83177 27.9729 3.81415C28.1928 3.81028 28.6847 3.86479 29.0033 4.12331C29.2723 4.3416 29.3463 4.63647 29.3817 4.84343C29.4171 5.05039 29.4612 5.52185 29.4262 5.89023C29.026 10.0949 27.2944 20.2986 26.4135 25.0079C26.0408 27.0006 25.3068 27.6687 24.5963 27.7341C23.0521 27.8762 21.8795 26.7136 20.3838 25.7332C18.0435 24.199 16.7213 23.244 14.4496 21.747C11.8242 20.0169 13.5261 19.066 15.0223 17.512C15.4139 17.1053 22.2177 10.9168 22.3493 10.3554C22.3658 10.2852 22.3811 10.0235 22.2256 9.88527C22.0701 9.74707 21.8407 9.79433 21.6751 9.83191C21.4403 9.88519 17.7016 12.3564 10.4588 17.2455C9.39753 17.9742 8.43629 18.3292 7.57506 18.3106C6.62562 18.2901 4.79928 17.7738 3.44158 17.3325C1.77631 16.7912 0.452782 16.505 0.568031 15.5856C0.62806 15.1068 1.28746 14.6171 2.54625 14.1165Z" fill="#5BCEFF"/>
</svg>
