<svg width="22" height="20" viewBox="0 0 22 20" fill="none" xmlns="http://www.w3.org/2000/svg">
<path d="M8.46292 8.56519L8.46166 4.2146H2.56092L2.55981 0.401123H19.0488L19.0499 4.26831H13.1492L13.1504 8.56519H8.46292Z" fill="#00A478"/>
<path fill-rule="evenodd" clip-rule="evenodd" d="M0.0254222 9.04858C0.0250012 7.59839 4.76731 6.41675 10.668 6.41675C16.5688 6.41675 21.3118 7.59839 21.3122 9.04858C21.3126 10.4988 16.5703 11.6804 10.6696 11.6804C4.76883 11.6804 0.0258432 10.4988 0.0254222 9.04858ZM20.4299 9.04875C20.0437 8.51164 16.8447 6.84661 10.6682 6.84661C4.49176 6.84661 1.2937 8.45793 0.907837 9.04875C1.29402 9.58586 4.49279 10.3915 10.6693 10.3915C16.9009 10.3915 20.044 9.58586 20.4299 9.04875Z" fill="#00A478"/>
<path d="M13.1506 9.90796L13.1497 6.90015C12.3776 6.84644 11.5504 6.79272 10.7232 6.79272C9.95116 6.79272 9.23425 6.79272 8.51735 6.84644L8.51822 9.85425C9.17999 9.85425 9.95206 9.90796 10.7241 9.90796C11.5513 9.96167 12.3785 9.96167 13.1506 9.90796Z" fill="#00A478"/>
<path d="M10.6695 11.6804C9.89748 11.6804 9.18057 11.6804 8.46364 11.6267L8.46596 19.6296H13.0983L13.096 11.573C12.3239 11.6267 11.4967 11.6804 10.6695 11.6804Z" fill="#00A478"/>
</svg>
