<svg width="1920" height="1413" viewBox="0 0 1920 1413" fill="none" xmlns="http://www.w3.org/2000/svg">
<path d="M1534.67 765.826C1525.98 800.129 1501.67 828.789 1465.07 851.233C1428.46 873.679 1379.59 889.887 1321.85 899.283C1206.37 918.073 1055.52 909.595 896.685 869.373C737.849 829.15 601.146 764.81 508.528 693.322C462.218 657.578 426.95 620.062 405.439 582.899C383.93 545.74 376.193 508.964 384.88 474.661C393.566 440.359 417.874 411.698 454.477 389.254C491.082 366.809 539.956 350.6 597.696 341.205C713.176 322.414 864.025 330.892 1022.86 371.115C1181.7 411.337 1318.4 475.677 1411.02 547.165C1457.33 582.909 1492.6 620.426 1514.11 657.588C1535.62 694.748 1543.35 731.523 1534.67 765.826Z" stroke="url(#paint0_radial_51_6766)" stroke-opacity="0.2"/>
<path d="M1795.27 831.82C1782.63 881.733 1747.27 923.418 1694.05 956.049C1640.83 988.681 1569.79 1012.24 1485.88 1025.89C1318.06 1053.2 1098.86 1040.88 868.055 982.431C637.254 923.984 438.604 830.491 304.007 726.601C236.707 674.656 185.441 620.126 154.168 566.098C122.897 512.073 111.633 458.58 124.273 408.667C136.913 358.754 172.279 317.069 225.494 284.439C278.712 251.807 349.753 228.249 433.664 214.596C601.485 187.288 820.69 199.61 1051.49 258.057C1282.29 316.503 1480.94 409.996 1615.54 513.886C1682.84 565.831 1734.1 620.361 1765.38 674.389C1796.65 728.414 1807.91 781.908 1795.27 831.82Z" stroke="url(#paint1_radial_51_6766)" stroke-opacity="0.3"/>
<path d="M2112.38 912.123C2094.93 981.03 2046.11 1038.56 1972.68 1083.59C1899.25 1128.62 1801.23 1161.12 1685.48 1179.95C1453.97 1217.62 1151.58 1200.62 833.216 1120C514.848 1039.38 240.82 910.413 55.1416 767.096C-37.6985 695.437 -108.431 620.205 -151.583 545.655C-194.733 471.107 -210.287 397.272 -192.838 328.365C-175.388 259.457 -126.566 201.924 -53.1365 156.898C20.2959 111.871 118.31 79.3718 234.066 60.5364C465.577 22.8658 767.959 39.8654 1086.33 120.487C1404.69 201.108 1678.72 330.075 1864.4 473.392C1957.24 545.051 2027.97 620.283 2071.13 694.833C2114.28 769.38 2129.83 843.216 2112.38 912.123Z" stroke="url(#paint2_radial_51_6766)" stroke-opacity="0.3"/>
<g filter="url(#filter0_bd_51_6766)">
<path d="M535 905C557.092 905 575 887.091 575 865C575 842.909 557.092 825 535 825C512.909 825 495 842.909 495 865C495 887.091 512.909 905 535 905Z" fill="#4A90E2" fill-opacity="0.2" shape-rendering="crispEdges"/>
</g>
<path fill-rule="evenodd" clip-rule="evenodd" d="M513.928 877.302C515.884 877.302 517.471 875.684 517.471 873.688C517.471 871.692 515.884 870.074 513.928 870.074C511.971 870.074 510.385 871.692 510.385 873.688C510.385 875.684 511.971 877.302 513.928 877.302Z" fill="#4A90E2"/>
<path fill-rule="evenodd" clip-rule="evenodd" d="M535.037 862.997H535.333C537.103 863.148 538.506 864.655 538.58 866.46C538.58 868.492 537.029 870.074 535.037 870.074C533.045 870.074 531.494 868.417 531.494 866.46C531.494 863.9 530.683 862.922 527.951 862.922C525.219 862.922 524.408 863.9 524.408 866.536V866.762C524.334 868.568 522.784 870.074 520.94 870.074C518.948 870.074 517.397 868.417 517.397 866.46C517.397 864.579 518.8 863.073 520.57 862.922H520.866C523.965 862.922 524.408 862.245 524.408 859.383C524.408 857.351 526.033 855.769 527.951 855.769C529.943 855.769 531.494 857.427 531.494 859.383C531.494 862.245 531.938 862.997 535.037 862.997ZM552.604 859.383C552.604 857.351 554.229 855.769 556.147 855.769C558.065 855.769 559.616 857.351 559.616 859.232C559.616 861.264 557.991 862.846 556.073 862.846C553.341 862.846 552.53 863.824 552.53 866.46V866.687C552.456 868.568 550.905 870.074 549.061 870.074H548.987C546.329 870.15 545.518 871.128 545.518 873.688V873.99C545.444 875.795 543.893 877.302 542.049 877.302C540.057 877.302 538.506 875.644 538.506 873.688C538.506 871.882 539.909 870.376 541.679 870.15C541.753 870.074 541.901 870.074 542.049 870.074C545.074 870.074 545.592 869.398 545.592 866.611V866.536C545.592 864.655 546.995 863.148 548.765 862.997H549.061C552.16 862.997 552.604 862.245 552.604 859.383Z" fill="#4A90E2"/>
<g filter="url(#filter1_bd_51_6766)">
<path d="M1751 960C1784.14 960 1811 933.137 1811 900C1811 866.863 1784.14 840 1751 840C1717.86 840 1691 866.863 1691 900C1691 933.137 1717.86 960 1751 960Z" fill="#C619C2" fill-opacity="0.2" shape-rendering="crispEdges"/>
</g>
<path fill-rule="evenodd" clip-rule="evenodd" d="M1730.94 881.996H1746.97L1730.23 922.782H1714.2L1730.94 881.996Z" fill="url(#paint3_linear_51_6766)"/>
<path fill-rule="evenodd" clip-rule="evenodd" d="M1771.64 881.996H1787.69L1768.67 922.879H1752.62L1771.64 881.996Z" fill="url(#paint4_linear_51_6766)"/>
<path fill-rule="evenodd" clip-rule="evenodd" d="M1730.94 881.996H1746.97L1768.69 922.879H1752.63L1730.94 881.996Z" fill="url(#paint5_linear_51_6766)"/>
<path fill-rule="evenodd" clip-rule="evenodd" d="M1730.23 922.782H1714.2L1746.96 881.996L1730.23 922.782Z" fill="black" fill-opacity="0.0274914"/>
<path fill-rule="evenodd" clip-rule="evenodd" d="M1752.62 923.004H1768.65L1730.94 881.996L1752.62 923.004Z" fill="black" fill-opacity="0.0549828"/>
<path fill-rule="evenodd" clip-rule="evenodd" d="M1752.62 923.004H1768.65L1746.96 881.996L1752.62 923.004Z" fill="black" fill-opacity="0.0549828"/>
<path fill-rule="evenodd" clip-rule="evenodd" d="M1752.62 923.004H1768.65L1771.56 881.676L1752.62 923.004Z" fill="black" fill-opacity="0.0549828"/>
<path fill-rule="evenodd" clip-rule="evenodd" d="M1752.62 923.004H1768.65L1787.69 881.996L1752.62 923.004Z" fill="black" fill-opacity="0.0549828"/>
<g filter="url(#filter2_bd_51_6766)">
<path d="M216.437 357.219C204.336 382.031 174.408 392.334 149.593 380.232C124.79 368.132 114.486 338.205 126.588 313.394C138.687 288.578 168.614 278.272 193.421 290.373C218.235 302.474 228.537 332.405 216.436 357.218L216.437 357.219Z" fill="#F7931A" fill-opacity="0.2" shape-rendering="crispEdges"/>
</g>
<path fill-rule="evenodd" clip-rule="evenodd" d="M187.449 332.752C189.047 328.477 186.19 325.39 181.93 322.829L184.693 317.166L181.244 315.485L178.555 320.999C177.65 320.557 176.715 320.123 175.785 319.693L178.493 314.143L175.048 312.462L172.285 318.123C171.531 317.774 170.791 317.431 170.077 317.083L170.085 317.065L165.331 314.744L163.536 318.427C163.536 318.427 166.105 319.62 166.04 319.646C167.436 320.327 167.496 321.36 167.286 322.124L164.14 328.575C164.236 328.623 164.36 328.688 164.493 328.777L164.129 328.6L159.719 337.638C159.444 338.047 158.843 338.622 157.867 338.148C157.892 338.209 155.362 336.925 155.362 336.925L152.668 340.709L157.156 342.897C157.662 343.145 158.161 343.395 158.654 343.642L158.655 343.643C158.975 343.803 159.292 343.962 159.607 344.118L156.815 349.848L160.258 351.528L163.023 345.861C163.958 346.341 164.87 346.795 165.763 347.23L163.01 352.87L166.458 354.551L169.248 348.834C175.205 351.328 179.975 351.847 183.131 346.651C185.675 342.467 184.568 339.506 181.664 337.111C184.159 337.066 186.283 335.882 187.448 332.752L187.449 332.752ZM176.652 342.647C174.736 346.576 168.606 343.479 165.803 342.063C165.552 341.936 165.328 341.823 165.136 341.729L168.838 334.141C169.073 334.255 169.361 334.388 169.688 334.538C172.614 335.88 178.609 338.631 176.653 342.647L176.652 342.647ZM171.096 330.95C173.433 332.138 178.528 334.727 180.27 331.158C182.051 327.506 177.047 325.228 174.602 324.115C174.328 323.99 174.085 323.88 173.888 323.784L170.531 330.667C170.694 330.746 170.884 330.842 171.096 330.95Z" fill="#F7931A"/>
<g filter="url(#filter3_bd_51_6766)">
<path d="M1590.71 278.501C1590.71 307.893 1566.88 331.719 1537.49 331.719C1508.1 331.719 1484.27 307.893 1484.27 278.501C1484.27 249.11 1508.1 225.283 1537.49 225.283C1566.88 225.283 1590.71 249.11 1590.71 278.501Z" fill="#717171" fill-opacity="0.2" shape-rendering="crispEdges"/>
</g>
<g opacity="0.8">
<path d="M1537.32 253.808L1536.99 254.925V287.345L1537.32 287.673L1552.37 278.778L1537.32 253.808Z" fill="white"/>
<path d="M1537.32 253.808L1522.27 278.778L1537.32 287.673V271.938V253.808Z" fill="white"/>
<path d="M1537.32 292.569L1537.14 292.795V304.344L1537.32 304.885L1552.38 283.678L1537.32 292.569Z" fill="white"/>
<path d="M1537.32 304.885V292.569L1522.27 283.678L1537.32 304.885Z" fill="white"/>
<path d="M1537.32 287.673L1552.37 278.778L1537.32 271.938V287.673Z" fill="white"/>
<path d="M1522.27 278.778L1537.32 287.673V271.938L1522.27 278.778Z" fill="white"/>
</g>
<g filter="url(#filter4_bd_51_6766)">
<path d="M1376.77 1039.5C1376.77 1062.85 1357.84 1081.78 1334.49 1081.78C1311.15 1081.78 1292.22 1062.85 1292.22 1039.5C1292.22 1016.15 1311.15 997.225 1334.49 997.225C1357.84 997.225 1376.77 1016.15 1376.77 1039.5Z" fill="#3CC8C8" fill-opacity="0.2" shape-rendering="crispEdges"/>
</g>
<path fill-rule="evenodd" clip-rule="evenodd" d="M1337.34 1018.57C1337.91 1017.49 1336.6 1016.19 1335.53 1016.75C1334.66 1017.1 1334.44 1018.37 1335.12 1019.02C1335.76 1019.69 1337.01 1019.45 1337.34 1018.57ZM1325.44 1019.05C1325.51 1018.33 1324.69 1017.73 1324.04 1018C1323.13 1018.25 1323.03 1019.68 1323.91 1020.03C1324.57 1020.4 1325.51 1019.82 1325.44 1019.05ZM1347.58 1020.05C1346.57 1019.92 1346.41 1018.31 1347.38 1017.99C1348.14 1017.62 1348.84 1018.32 1348.95 1019.04C1348.79 1019.66 1348.28 1020.23 1347.58 1020.05ZM1329.12 1024.56C1329.29 1023.28 1327.74 1022.25 1326.65 1022.94C1325.64 1023.47 1325.5 1025.04 1326.42 1025.72C1327.37 1026.59 1329.06 1025.84 1329.12 1024.56ZM1343.22 1023.68C1343.71 1022.42 1345.67 1022.38 1346.22 1023.61C1346.77 1024.56 1346.1 1025.75 1345.13 1026.07C1343.84 1026.31 1342.62 1024.91 1343.22 1023.68ZM1336.13 1024.04C1335.12 1024.11 1334.14 1024.92 1334.15 1026C1334.09 1026.89 1334.72 1027.61 1335.46 1027.98C1335.54 1027.98 1335.61 1027.99 1335.69 1027.99L1335.69 1027.99L1335.69 1027.99L1335.69 1027.99L1335.69 1027.99L1335.69 1027.99L1335.69 1027.99L1335.69 1027.99L1335.69 1027.99L1335.69 1027.99L1335.69 1027.99L1335.69 1027.99L1335.69 1027.99L1335.69 1027.99L1335.69 1027.99L1335.69 1027.99L1335.69 1027.99L1335.69 1027.99L1335.69 1027.99L1335.69 1027.99L1335.69 1027.99C1336.11 1028.03 1336.54 1028.06 1336.92 1027.85C1337.9 1027.41 1338.38 1026.1 1337.84 1025.15C1337.55 1024.46 1336.81 1024.17 1336.13 1024.04ZM1317.05 1027.58C1318.04 1026.96 1319.38 1028.09 1319.01 1029.17C1318.8 1030.12 1317.55 1030.5 1316.83 1029.9C1316.07 1029.33 1316.19 1027.98 1317.05 1027.58ZM1355.89 1028.75C1355.99 1027.67 1354.61 1026.92 1353.76 1027.58C1352.9 1028.11 1352.99 1029.54 1353.91 1029.96C1354.75 1030.46 1355.95 1029.73 1355.89 1028.75ZM1338.96 1029.52C1340.34 1029.02 1341.99 1029.62 1342.78 1030.87C1343.83 1032.4 1343.27 1034.73 1341.65 1035.61C1339.98 1036.64 1337.52 1035.76 1336.9 1033.87C1336.2 1032.18 1337.23 1030.06 1338.96 1029.52ZM1335.16 1031.16C1334.42 1029.57 1332.35 1028.96 1330.81 1029.69C1329.17 1030.43 1328.42 1032.61 1329.27 1034.22C1330.02 1035.88 1332.23 1036.56 1333.8 1035.66C1335.36 1034.87 1336.04 1032.71 1335.16 1031.16ZM1322.66 1032.51C1322.77 1031.51 1323.71 1030.85 1324.65 1030.79C1325.67 1030.91 1326.48 1031.71 1326.59 1032.75C1326.52 1033.78 1325.74 1034.78 1324.66 1034.78C1323.47 1034.88 1322.43 1033.69 1322.66 1032.51ZM1349.6 1032.75C1349.66 1031.33 1347.96 1030.29 1346.75 1031.01C1345.44 1031.63 1345.34 1033.69 1346.6 1034.42C1347.81 1035.3 1349.69 1034.25 1349.6 1032.75ZM1327.5 1036.29C1328.92 1035.89 1330.55 1036.57 1331.25 1037.89C1332.02 1039.23 1331.7 1041.08 1330.52 1042.06C1328.99 1043.49 1326.18 1042.91 1325.36 1040.96C1324.43 1039.16 1325.56 1036.76 1327.5 1036.29ZM1346.71 1037.7C1345.96 1036.42 1344.33 1035.88 1342.95 1036.28C1341 1036.82 1339.97 1039.32 1340.99 1041.08C1341.84 1042.79 1344.22 1043.36 1345.75 1042.27C1347.22 1041.33 1347.69 1039.15 1346.71 1037.7ZM1318.33 1037.94C1319.56 1037.47 1320.92 1038.85 1320.42 1040.08C1320.12 1041.2 1318.55 1041.62 1317.74 1040.79C1316.79 1040.01 1317.14 1038.28 1318.33 1037.94ZM1353.47 1037.73C1352.42 1037.79 1351.67 1038.7 1351.71 1039.73C1351.91 1040.22 1352.16 1040.72 1352.65 1040.97C1353.68 1041.54 1355.14 1040.71 1355.06 1039.48C1355.13 1038.56 1354.31 1037.87 1353.47 1037.73ZM1312.27 1038.55C1313.01 1038.22 1313.93 1038.87 1313.76 1039.7C1313.72 1040.64 1312.34 1041.01 1311.84 1040.22C1311.39 1039.67 1311.66 1038.83 1312.27 1038.55ZM1360.56 1039.04C1360.35 1038.43 1359.51 1038.16 1358.99 1038.53C1358.12 1039 1358.46 1040.62 1359.51 1040.52C1360.26 1040.64 1360.91 1039.71 1360.56 1039.04ZM1331.52 1043.05C1333.47 1042.54 1335.57 1044.18 1335.58 1046.21C1335.71 1048.26 1333.64 1050.07 1331.65 1049.6C1330.1 1049.35 1328.89 1047.85 1328.94 1046.27C1328.94 1044.77 1330.06 1043.37 1331.52 1043.05ZM1343.35 1046.23C1343.38 1044.16 1341.22 1042.49 1339.24 1043.04C1338.07 1043.34 1337.08 1044.32 1336.82 1045.52C1336.3 1047.32 1337.66 1049.36 1339.5 1049.6C1341.45 1050 1343.45 1048.24 1343.35 1046.23ZM1324.35 1044.29C1325.72 1044.06 1327.01 1045.6 1326.45 1046.91C1326.05 1048.31 1324.03 1048.69 1323.14 1047.55C1322.09 1046.45 1322.87 1044.44 1324.35 1044.29ZM1349.63 1046.24C1349.72 1044.9 1348.22 1043.84 1347 1044.35C1345.52 1044.83 1345.28 1047.1 1346.63 1047.87C1347.82 1048.73 1349.67 1047.72 1349.63 1046.24ZM1353.33 1050.77C1352.85 1049.87 1353.72 1048.67 1354.71 1048.84C1355.17 1048.83 1355.51 1049.18 1355.81 1049.5L1355.86 1049.55L1355.87 1049.64C1355.94 1050.16 1356.01 1050.75 1355.6 1051.13C1355 1051.9 1353.65 1051.68 1353.33 1050.77ZM1319.1 1050.49C1319.3 1049.4 1317.97 1048.47 1317.05 1049.09C1316.17 1049.54 1316.14 1050.96 1316.99 1051.46C1317.78 1052.01 1318.99 1051.45 1319.1 1050.49ZM1335.32 1051.11C1336.53 1050.57 1338.07 1051.64 1337.96 1052.99C1338.05 1054.47 1336.14 1055.5 1334.96 1054.61C1333.64 1053.84 1333.86 1051.59 1335.32 1051.11ZM1329.18 1054.67C1329.27 1053.51 1327.89 1052.56 1326.86 1053.11C1326.13 1053.38 1325.83 1054.19 1325.82 1054.92C1326.07 1055.58 1326.58 1056.29 1327.35 1056.3C1328.29 1056.44 1329.21 1055.63 1329.18 1054.67ZM1344 1053.12C1345.06 1052.46 1346.57 1053.41 1346.47 1054.66C1346.49 1055.96 1344.79 1056.8 1343.8 1055.94C1342.85 1055.27 1342.96 1053.66 1344 1053.12ZM1347.83 1058.81C1347.06 1058.98 1346.51 1059.85 1346.98 1060.57C1347.47 1061.41 1348.88 1061.11 1348.97 1060.13C1349.1 1059.41 1348.45 1058.94 1347.83 1058.81ZM1323.32 1059.94C1323.5 1059.37 1323.96 1058.8 1324.63 1058.95C1325.6 1059.02 1325.88 1060.5 1325.04 1060.95C1324.27 1061.47 1323.38 1060.76 1323.32 1059.94ZM1336.72 1059.79C1336 1059.34 1334.92 1059.75 1334.73 1060.6C1334.39 1061.45 1335.21 1062.48 1336.11 1062.38C1336.6 1062.39 1336.98 1062.04 1337.27 1061.69C1337.32 1061.45 1337.38 1061.22 1337.45 1060.98L1337.44 1060.97C1337.32 1060.52 1337.18 1059.99 1336.72 1059.79Z" fill="#3CC8C8"/>
<g filter="url(#filter5_bd_51_6766)">
<path d="M1703.5 546.249C1703.5 572.345 1682.34 593.499 1656.25 593.499C1630.15 593.499 1609 572.345 1609 546.249C1609 520.154 1630.15 499 1656.25 499C1682.34 499 1703.5 520.154 1703.5 546.249Z" fill="white" fill-opacity="0.2" shape-rendering="crispEdges"/>
</g>
<path d="M1681.86 534.011C1681.25 531.714 1679.42 529.902 1677.1 529.281C1672.91 528.167 1656.08 528.167 1656.08 528.167C1656.08 528.167 1639.26 528.167 1635.06 529.281C1632.75 529.894 1630.92 531.706 1630.3 534.011C1629.18 538.18 1629.18 546.882 1629.18 546.882C1629.18 546.882 1629.18 555.585 1630.3 559.754C1630.92 562.05 1632.74 563.862 1635.06 564.484C1639.26 565.598 1656.08 565.598 1656.08 565.598C1656.08 565.598 1672.91 565.598 1677.1 564.484C1679.41 563.871 1681.24 562.059 1681.86 559.754C1682.98 555.585 1682.98 546.882 1682.98 546.882C1682.98 546.882 1682.98 538.18 1681.86 534.011Z" fill="#FF0000"/>
<path d="M1650.9 554.833L1665.21 546.882L1650.9 538.931V554.833Z" fill="white"/>
<g filter="url(#filter6_bd_51_6766)">
<path d="M183 651C208.405 651 229 630.405 229 605C229 579.595 208.405 559 183 559C157.595 559 137 579.595 137 605C137 630.405 157.595 651 183 651Z" fill="#767DFF" fill-opacity="0.2" shape-rendering="crispEdges"/>
</g>
<path fill-rule="evenodd" clip-rule="evenodd" d="M189.309 580.231H176.691C175.801 580.23 174.98 580.698 174.544 581.453L155.006 615.356C154.588 616.083 154.588 616.969 155.006 617.696L161.256 628.544C161.691 629.301 162.512 629.769 163.403 629.769H202.597C203.487 629.768 204.307 629.3 204.742 628.544L210.994 617.696C211.412 616.969 211.412 616.083 210.994 615.356L191.456 581.453C191.02 580.698 190.199 580.23 189.309 580.231ZM169.836 616.526L183 593.719L196.164 616.526H169.836Z" fill="#767DFF"/>
<g filter="url(#filter7_bd_51_6766)">
<path d="M416.03 210.601C422.137 227.379 413.487 245.93 396.709 252.037C379.931 258.144 361.379 249.493 355.272 232.715C349.166 215.937 357.817 197.386 374.595 191.279C391.372 185.172 409.924 193.823 416.03 210.601Z" fill="#00A478" fill-opacity="0.2" shape-rendering="crispEdges"/>
</g>
<path d="M382.343 222.26L380.408 216.945L373.2 219.569L371.504 214.91L391.647 207.579L393.367 212.303L386.158 214.927L388.069 220.176L382.343 222.26Z" fill="#00A478"/>
<path fill-rule="evenodd" clip-rule="evenodd" d="M372.25 226.602C371.606 224.83 376.874 221.278 384.082 218.654C391.29 216.031 397.61 215.366 398.254 217.137C398.899 218.909 393.631 222.461 386.423 225.084C379.214 227.708 372.895 228.373 372.25 226.602ZM397.176 217.529C396.466 217.045 391.818 216.433 384.273 219.179C376.728 221.926 373.537 225.316 373.328 226.209C374.039 226.694 378.304 226.256 385.849 223.51C393.462 220.739 396.944 218.357 397.176 217.529Z" fill="#00A478"/>
<path d="M388.666 221.816L387.329 218.142C386.362 218.419 385.327 218.721 384.317 219.089C383.374 219.433 382.498 219.751 381.646 220.136L382.983 223.81C383.792 223.516 384.759 223.238 385.702 222.895C386.736 222.593 387.747 222.225 388.666 221.816Z" fill="#00A478"/>
<path d="M386.423 225.085C385.479 225.428 384.604 225.747 383.704 226L387.262 235.776L392.921 233.716L389.339 223.874C388.42 224.283 387.433 224.717 386.423 225.085Z" fill="#00A478"/>
<defs>
<filter id="filter0_bd_51_6766" x="468" y="802" width="134" height="134" filterUnits="userSpaceOnUse" color-interpolation-filters="sRGB">
<feFlood flood-opacity="0" result="BackgroundImageFix"/>
<feGaussianBlur in="BackgroundImage" stdDeviation="5"/>
<feComposite in2="SourceAlpha" operator="in" result="effect1_backgroundBlur_51_6766"/>
<feColorMatrix in="SourceAlpha" type="matrix" values="0 0 0 0 0 0 0 0 0 0 0 0 0 0 0 0 0 0 127 0" result="hardAlpha"/>
<feOffset dy="4"/>
<feGaussianBlur stdDeviation="13.5"/>
<feComposite in2="hardAlpha" operator="out"/>
<feColorMatrix type="matrix" values="0 0 0 0 0.290196 0 0 0 0 0.564706 0 0 0 0 0.886275 0 0 0 0.29 0"/>
<feBlend mode="normal" in2="effect1_backgroundBlur_51_6766" result="effect2_dropShadow_51_6766"/>
<feBlend mode="normal" in="SourceGraphic" in2="effect2_dropShadow_51_6766" result="shape"/>
</filter>
<filter id="filter1_bd_51_6766" x="1664" y="817" width="174" height="174" filterUnits="userSpaceOnUse" color-interpolation-filters="sRGB">
<feFlood flood-opacity="0" result="BackgroundImageFix"/>
<feGaussianBlur in="BackgroundImage" stdDeviation="5"/>
<feComposite in2="SourceAlpha" operator="in" result="effect1_backgroundBlur_51_6766"/>
<feColorMatrix in="SourceAlpha" type="matrix" values="0 0 0 0 0 0 0 0 0 0 0 0 0 0 0 0 0 0 127 0" result="hardAlpha"/>
<feOffset dy="4"/>
<feGaussianBlur stdDeviation="13.5"/>
<feComposite in2="hardAlpha" operator="out"/>
<feColorMatrix type="matrix" values="0 0 0 0 0.776471 0 0 0 0 0.0980392 0 0 0 0 0.760784 0 0 0 0.29 0"/>
<feBlend mode="normal" in2="effect1_backgroundBlur_51_6766" result="effect2_dropShadow_51_6766"/>
<feBlend mode="normal" in="SourceGraphic" in2="effect2_dropShadow_51_6766" result="shape"/>
</filter>
<filter id="filter2_bd_51_6766" x="94.5177" y="262.304" width="153.988" height="153.998" filterUnits="userSpaceOnUse" color-interpolation-filters="sRGB">
<feFlood flood-opacity="0" result="BackgroundImageFix"/>
<feGaussianBlur in="BackgroundImage" stdDeviation="5"/>
<feComposite in2="SourceAlpha" operator="in" result="effect1_backgroundBlur_51_6766"/>
<feColorMatrix in="SourceAlpha" type="matrix" values="0 0 0 0 0 0 0 0 0 0 0 0 0 0 0 0 0 0 127 0" result="hardAlpha"/>
<feOffset dy="4"/>
<feGaussianBlur stdDeviation="13.5"/>
<feComposite in2="hardAlpha" operator="out"/>
<feColorMatrix type="matrix" values="0 0 0 0 0.968627 0 0 0 0 0.57647 0 0 0 0 0.101961 0 0 0 0.29 0"/>
<feBlend mode="normal" in2="effect1_backgroundBlur_51_6766" result="effect2_dropShadow_51_6766"/>
<feBlend mode="normal" in="SourceGraphic" in2="effect2_dropShadow_51_6766" result="shape"/>
</filter>
<filter id="filter3_bd_51_6766" x="1457.27" y="202.283" width="160.436" height="160.436" filterUnits="userSpaceOnUse" color-interpolation-filters="sRGB">
<feFlood flood-opacity="0" result="BackgroundImageFix"/>
<feGaussianBlur in="BackgroundImage" stdDeviation="5"/>
<feComposite in2="SourceAlpha" operator="in" result="effect1_backgroundBlur_51_6766"/>
<feColorMatrix in="SourceAlpha" type="matrix" values="0 0 0 0 0 0 0 0 0 0 0 0 0 0 0 0 0 0 127 0" result="hardAlpha"/>
<feOffset dy="4"/>
<feGaussianBlur stdDeviation="13.5"/>
<feComposite in2="hardAlpha" operator="out"/>
<feColorMatrix type="matrix" values="0 0 0 0 0.443137 0 0 0 0 0.443137 0 0 0 0 0.443137 0 0 0 0.29 0"/>
<feBlend mode="normal" in2="effect1_backgroundBlur_51_6766" result="effect2_dropShadow_51_6766"/>
<feBlend mode="normal" in="SourceGraphic" in2="effect2_dropShadow_51_6766" result="shape"/>
</filter>
<filter id="filter4_bd_51_6766" x="1265.22" y="974.225" width="138.552" height="138.552" filterUnits="userSpaceOnUse" color-interpolation-filters="sRGB">
<feFlood flood-opacity="0" result="BackgroundImageFix"/>
<feGaussianBlur in="BackgroundImage" stdDeviation="5"/>
<feComposite in2="SourceAlpha" operator="in" result="effect1_backgroundBlur_51_6766"/>
<feColorMatrix in="SourceAlpha" type="matrix" values="0 0 0 0 0 0 0 0 0 0 0 0 0 0 0 0 0 0 127 0" result="hardAlpha"/>
<feOffset dy="4"/>
<feGaussianBlur stdDeviation="13.5"/>
<feComposite in2="hardAlpha" operator="out"/>
<feColorMatrix type="matrix" values="0 0 0 0 0.235294 0 0 0 0 0.784314 0 0 0 0 0.784314 0 0 0 0.29 0"/>
<feBlend mode="normal" in2="effect1_backgroundBlur_51_6766" result="effect2_dropShadow_51_6766"/>
<feBlend mode="normal" in="SourceGraphic" in2="effect2_dropShadow_51_6766" result="shape"/>
</filter>
<filter id="filter5_bd_51_6766" x="1582" y="476" width="148.499" height="148.5" filterUnits="userSpaceOnUse" color-interpolation-filters="sRGB">
<feFlood flood-opacity="0" result="BackgroundImageFix"/>
<feGaussianBlur in="BackgroundImage" stdDeviation="5"/>
<feComposite in2="SourceAlpha" operator="in" result="effect1_backgroundBlur_51_6766"/>
<feColorMatrix in="SourceAlpha" type="matrix" values="0 0 0 0 0 0 0 0 0 0 0 0 0 0 0 0 0 0 127 0" result="hardAlpha"/>
<feOffset dy="4"/>
<feGaussianBlur stdDeviation="13.5"/>
<feComposite in2="hardAlpha" operator="out"/>
<feColorMatrix type="matrix" values="0 0 0 0 1 0 0 0 0 1 0 0 0 0 1 0 0 0 0.29 0"/>
<feBlend mode="normal" in2="effect1_backgroundBlur_51_6766" result="effect2_dropShadow_51_6766"/>
<feBlend mode="normal" in="SourceGraphic" in2="effect2_dropShadow_51_6766" result="shape"/>
</filter>
<filter id="filter6_bd_51_6766" x="110" y="536" width="146" height="146" filterUnits="userSpaceOnUse" color-interpolation-filters="sRGB">
<feFlood flood-opacity="0" result="BackgroundImageFix"/>
<feGaussianBlur in="BackgroundImage" stdDeviation="5"/>
<feComposite in2="SourceAlpha" operator="in" result="effect1_backgroundBlur_51_6766"/>
<feColorMatrix in="SourceAlpha" type="matrix" values="0 0 0 0 0 0 0 0 0 0 0 0 0 0 0 0 0 0 127 0" result="hardAlpha"/>
<feOffset dy="4"/>
<feGaussianBlur stdDeviation="13.5"/>
<feComposite in2="hardAlpha" operator="out"/>
<feColorMatrix type="matrix" values="0 0 0 0 0.462745 0 0 0 0 0.490196 0 0 0 0 1 0 0 0 0.29 0"/>
<feBlend mode="normal" in2="effect1_backgroundBlur_51_6766" result="effect2_dropShadow_51_6766"/>
<feBlend mode="normal" in="SourceGraphic" in2="effect2_dropShadow_51_6766" result="shape"/>
</filter>
<filter id="filter7_bd_51_6766" x="326.314" y="166.32" width="118.675" height="118.675" filterUnits="userSpaceOnUse" color-interpolation-filters="sRGB">
<feFlood flood-opacity="0" result="BackgroundImageFix"/>
<feGaussianBlur in="BackgroundImage" stdDeviation="5"/>
<feComposite in2="SourceAlpha" operator="in" result="effect1_backgroundBlur_51_6766"/>
<feColorMatrix in="SourceAlpha" type="matrix" values="0 0 0 0 0 0 0 0 0 0 0 0 0 0 0 0 0 0 127 0" result="hardAlpha"/>
<feOffset dy="4"/>
<feGaussianBlur stdDeviation="13.5"/>
<feComposite in2="hardAlpha" operator="out"/>
<feColorMatrix type="matrix" values="0 0 0 0 0 0 0 0 0 0.643137 0 0 0 0 0.470588 0 0 0 0.29 0"/>
<feBlend mode="normal" in2="effect1_backgroundBlur_51_6766" result="effect2_dropShadow_51_6766"/>
<feBlend mode="normal" in="SourceGraphic" in2="effect2_dropShadow_51_6766" result="shape"/>
</filter>
<radialGradient id="paint0_radial_51_6766" cx="0" cy="0" r="1" gradientUnits="userSpaceOnUse" gradientTransform="translate(922.726 661.41) rotate(22.5318) scale(539.187 1242.87)">
<stop stop-color="white" stop-opacity="0"/>
<stop offset="1" stop-color="white"/>
</radialGradient>
<radialGradient id="paint1_radial_51_6766" cx="0" cy="0" r="1" gradientUnits="userSpaceOnUse" gradientTransform="translate(905.947 680.056) rotate(22.5318) scale(783.402 1805.8)">
<stop stop-color="white" stop-opacity="0"/>
<stop offset="1" stop-color="white"/>
</radialGradient>
<radialGradient id="paint2_radial_51_6766" cx="0" cy="0" r="1" gradientUnits="userSpaceOnUse" gradientTransform="translate(885.528 702.744) rotate(22.5318) scale(1080.57 2490.78)">
<stop stop-color="white" stop-opacity="0"/>
<stop offset="1" stop-color="white"/>
</radialGradient>
<linearGradient id="paint3_linear_51_6766" x1="1720.83" y1="945.019" x2="1789.77" y2="946.317" gradientUnits="userSpaceOnUse">
<stop stop-color="#DB00BC"/>
<stop offset="1" stop-color="#3AC0E9"/>
</linearGradient>
<linearGradient id="paint4_linear_51_6766" x1="1714.41" y1="943.91" x2="1783.35" y2="942.738" gradientUnits="userSpaceOnUse">
<stop stop-color="#DB00BC"/>
<stop offset="1" stop-color="#3AC0E9"/>
</linearGradient>
<linearGradient id="paint5_linear_51_6766" x1="1714.45" y1="940.6" x2="1783.38" y2="939.242" gradientUnits="userSpaceOnUse">
<stop stop-color="#DB00BC"/>
<stop offset="1" stop-color="#3AC0E9"/>
</linearGradient>
</defs>
</svg>
