<svg width="118" height="21" viewBox="0 0 118 21" fill="none" xmlns="http://www.w3.org/2000/svg">
<path d="M11.8744 7.63097L7.58178 11.9694L2.69958 8.91575C2.00006 8.47811 2.14557 7.41558 2.93679 7.18419L14.5284 3.78958C15.2529 3.57722 15.9244 4.25462 15.7092 4.9815L12.2798 16.5651C12.0449 17.3574 10.9884 17.499 10.5549 16.7964L7.5795 11.9702" stroke="white" stroke-width="1.5" stroke-linecap="round" stroke-linejoin="round"/>
<path d="M23.558 10.52C23.558 9.74 23.696 8.978 23.972 8.234C24.26 7.478 24.674 6.794 25.214 6.182C25.754 5.558 26.414 5.066 27.194 4.706C27.974 4.334 28.862 4.148 29.858 4.148C31.034 4.148 32.048 4.406 32.9 4.922C33.764 5.438 34.406 6.11 34.826 6.938L32.918 8.252C32.702 7.772 32.42 7.394 32.072 7.118C31.724 6.83 31.352 6.632 30.956 6.524C30.56 6.404 30.17 6.344 29.786 6.344C29.162 6.344 28.616 6.47 28.148 6.722C27.692 6.974 27.308 7.304 26.996 7.712C26.684 8.12 26.45 8.576 26.294 9.08C26.15 9.584 26.078 10.088 26.078 10.592C26.078 11.156 26.168 11.702 26.348 12.23C26.528 12.746 26.78 13.208 27.104 13.616C27.44 14.012 27.836 14.33 28.292 14.57C28.76 14.798 29.27 14.912 29.822 14.912C30.218 14.912 30.62 14.846 31.028 14.714C31.436 14.582 31.814 14.372 32.162 14.084C32.51 13.796 32.78 13.424 32.972 12.968L35.006 14.138C34.754 14.774 34.34 15.314 33.764 15.758C33.2 16.202 32.564 16.538 31.856 16.766C31.148 16.994 30.446 17.108 29.75 17.108C28.838 17.108 28.004 16.922 27.248 16.55C26.492 16.166 25.838 15.662 25.286 15.038C24.746 14.402 24.32 13.694 24.008 12.914C23.708 12.122 23.558 11.324 23.558 10.52ZM40.7587 17.18C39.9907 17.18 39.3007 17.054 38.6887 16.802C38.0767 16.538 37.5547 16.178 37.1227 15.722C36.7027 15.266 36.3787 14.744 36.1507 14.156C35.9227 13.568 35.8087 12.95 35.8087 12.302C35.8087 11.642 35.9227 11.018 36.1507 10.43C36.3787 9.842 36.7027 9.32 37.1227 8.864C37.5547 8.408 38.0767 8.054 38.6887 7.802C39.3007 7.538 39.9907 7.406 40.7587 7.406C41.5267 7.406 42.2107 7.538 42.8107 7.802C43.4227 8.054 43.9447 8.408 44.3767 8.864C44.8087 9.32 45.1327 9.842 45.3487 10.43C45.5767 11.018 45.6907 11.642 45.6907 12.302C45.6907 12.95 45.5767 13.568 45.3487 14.156C45.1327 14.744 44.8087 15.266 44.3767 15.722C43.9567 16.178 43.4407 16.538 42.8287 16.802C42.2167 17.054 41.5267 17.18 40.7587 17.18ZM38.2927 12.302C38.2927 12.854 38.4007 13.346 38.6167 13.778C38.8327 14.198 39.1267 14.528 39.4987 14.768C39.8707 15.008 40.2907 15.128 40.7587 15.128C41.2147 15.128 41.6287 15.008 42.0007 14.768C42.3727 14.516 42.6667 14.18 42.8827 13.76C43.1107 13.328 43.2247 12.836 43.2247 12.284C43.2247 11.744 43.1107 11.258 42.8827 10.826C42.6667 10.394 42.3727 10.058 42.0007 9.818C41.6287 9.578 41.2147 9.458 40.7587 9.458C40.2907 9.458 39.8707 9.584 39.4987 9.836C39.1267 10.076 38.8327 10.412 38.6167 10.844C38.4007 11.264 38.2927 11.75 38.2927 12.302ZM56.0847 17H53.6727V11.708C53.6727 10.952 53.5407 10.4 53.2767 10.052C53.0127 9.704 52.6467 9.53 52.1787 9.53C51.8547 9.53 51.5247 9.614 51.1887 9.782C50.8647 9.95 50.5707 10.184 50.3067 10.484C50.0427 10.772 49.8507 11.108 49.7307 11.492V17H47.3187V7.568H49.4967V9.314C49.7367 8.906 50.0427 8.564 50.4147 8.288C50.7867 8 51.2127 7.784 51.6927 7.64C52.1847 7.484 52.7007 7.406 53.2407 7.406C53.8287 7.406 54.3087 7.514 54.6807 7.73C55.0647 7.934 55.3527 8.216 55.5447 8.576C55.7487 8.924 55.8867 9.32 55.9587 9.764C56.0427 10.208 56.0847 10.658 56.0847 11.114V17ZM63.7813 16.514C63.5773 16.598 63.3313 16.694 63.0433 16.802C62.7553 16.91 62.4433 16.994 62.1073 17.054C61.7833 17.126 61.4533 17.162 61.1173 17.162C60.6733 17.162 60.2653 17.084 59.8933 16.928C59.5213 16.772 59.2213 16.526 58.9933 16.19C58.7773 15.842 58.6693 15.392 58.6693 14.84V9.422H57.4273V7.568H58.6693V4.508H61.0813V7.568H63.0613V9.422H61.0813V14.03C61.0933 14.354 61.1833 14.588 61.3513 14.732C61.5193 14.876 61.7293 14.948 61.9813 14.948C62.2333 14.948 62.4793 14.906 62.7193 14.822C62.9593 14.738 63.1513 14.666 63.2953 14.606L63.7813 16.514ZM64.3895 14.21C64.3895 13.598 64.5575 13.064 64.8935 12.608C65.2415 12.14 65.7215 11.78 66.3335 11.528C66.9455 11.276 67.6475 11.15 68.4395 11.15C68.8355 11.15 69.2375 11.18 69.6455 11.24C70.0535 11.3 70.4075 11.396 70.7075 11.528V11.024C70.7075 10.424 70.5275 9.962 70.1675 9.638C69.8195 9.314 69.2975 9.152 68.6015 9.152C68.0855 9.152 67.5935 9.242 67.1255 9.422C66.6575 9.602 66.1655 9.866 65.6495 10.214L64.8755 8.63C65.4995 8.222 66.1355 7.916 66.7835 7.712C67.4435 7.508 68.1335 7.406 68.8535 7.406C70.1975 7.406 71.2415 7.742 71.9855 8.414C72.7415 9.086 73.1195 10.046 73.1195 11.294V14.3C73.1195 14.552 73.1615 14.732 73.2455 14.84C73.3415 14.948 73.4915 15.014 73.6955 15.038V17C73.4795 17.036 73.2815 17.066 73.1015 17.09C72.9335 17.114 72.7895 17.126 72.6695 17.126C72.1895 17.126 71.8235 17.018 71.5715 16.802C71.3315 16.586 71.1815 16.322 71.1215 16.01L71.0675 15.524C70.6595 16.052 70.1495 16.46 69.5375 16.748C68.9255 17.036 68.3015 17.18 67.6655 17.18C67.0415 17.18 66.4775 17.054 65.9735 16.802C65.4815 16.538 65.0915 16.184 64.8035 15.74C64.5275 15.284 64.3895 14.774 64.3895 14.21ZM70.2575 14.696C70.3895 14.552 70.4975 14.408 70.5815 14.264C70.6655 14.12 70.7075 13.988 70.7075 13.868V12.914C70.4195 12.794 70.1075 12.704 69.7715 12.644C69.4355 12.572 69.1175 12.536 68.8175 12.536C68.1935 12.536 67.6775 12.674 67.2695 12.95C66.8735 13.214 66.6755 13.568 66.6755 14.012C66.6755 14.252 66.7415 14.48 66.8735 14.696C67.0055 14.912 67.1975 15.086 67.4495 15.218C67.7015 15.35 68.0015 15.416 68.3495 15.416C68.7095 15.416 69.0635 15.35 69.4115 15.218C69.7595 15.074 70.0415 14.9 70.2575 14.696ZM79.7654 17.18C78.9974 17.18 78.3074 17.054 77.6954 16.802C77.0834 16.538 76.5614 16.178 76.1294 15.722C75.6974 15.254 75.3614 14.726 75.1214 14.138C74.8934 13.55 74.7794 12.932 74.7794 12.284C74.7794 11.396 74.9774 10.586 75.3734 9.854C75.7814 9.11 76.3574 8.516 77.1014 8.072C77.8454 7.628 78.7274 7.406 79.7474 7.406C80.7674 7.406 81.6434 7.628 82.3754 8.072C83.1074 8.516 83.6534 9.098 84.0134 9.818L81.6554 10.538C81.4514 10.19 81.1814 9.926 80.8454 9.746C80.5094 9.554 80.1374 9.458 79.7294 9.458C79.2734 9.458 78.8534 9.578 78.4694 9.818C78.0974 10.046 77.8034 10.376 77.5874 10.808C77.3714 11.228 77.2634 11.72 77.2634 12.284C77.2634 12.836 77.3714 13.328 77.5874 13.76C77.8154 14.18 78.1154 14.516 78.4874 14.768C78.8594 15.008 79.2734 15.128 79.7294 15.128C80.0174 15.128 80.2874 15.08 80.5394 14.984C80.8034 14.888 81.0374 14.756 81.2414 14.588C81.4454 14.42 81.5954 14.228 81.6914 14.012L84.0494 14.732C83.8334 15.2 83.5154 15.62 83.0954 15.992C82.6874 16.364 82.2014 16.658 81.6374 16.874C81.0854 17.078 80.4614 17.18 79.7654 17.18ZM91.1855 16.514C90.9815 16.598 90.7355 16.694 90.4475 16.802C90.1595 16.91 89.8475 16.994 89.5115 17.054C89.1875 17.126 88.8575 17.162 88.5215 17.162C88.0775 17.162 87.6695 17.084 87.2975 16.928C86.9255 16.772 86.6255 16.526 86.3975 16.19C86.1815 15.842 86.0735 15.392 86.0735 14.84V9.422H84.8315V7.568H86.0735V4.508H88.4855V7.568H90.4655V9.422H88.4855V14.03C88.4975 14.354 88.5875 14.588 88.7555 14.732C88.9235 14.876 89.1335 14.948 89.3855 14.948C89.6375 14.948 89.8835 14.906 90.1235 14.822C90.3635 14.738 90.5555 14.666 90.6995 14.606L91.1855 16.514ZM102.418 17.09C101.398 17.09 100.528 16.922 99.808 16.586C99.1 16.238 98.524 15.764 98.08 15.164C97.648 14.564 97.33 13.886 97.126 13.13C96.922 12.362 96.82 11.564 96.82 10.736V4.22H99.304V10.736C99.304 11.264 99.352 11.78 99.448 12.284C99.556 12.776 99.73 13.22 99.97 13.616C100.21 14.012 100.528 14.324 100.924 14.552C101.32 14.78 101.812 14.894 102.4 14.894C103 14.894 103.498 14.78 103.894 14.552C104.302 14.312 104.62 13.994 104.848 13.598C105.088 13.202 105.262 12.758 105.37 12.266C105.478 11.762 105.532 11.252 105.532 10.736V4.22H107.998V10.736C107.998 11.612 107.89 12.434 107.674 13.202C107.47 13.97 107.14 14.648 106.684 15.236C106.24 15.812 105.664 16.268 104.956 16.604C104.248 16.928 103.402 17.09 102.418 17.09ZM113.511 17.18C112.707 17.18 111.939 17.048 111.207 16.784C110.475 16.52 109.845 16.13 109.317 15.614L110.181 14.048C110.745 14.504 111.297 14.84 111.837 15.056C112.389 15.272 112.917 15.38 113.421 15.38C113.889 15.38 114.261 15.296 114.537 15.128C114.825 14.96 114.969 14.708 114.969 14.372C114.969 14.144 114.891 13.97 114.735 13.85C114.579 13.718 114.351 13.604 114.051 13.508C113.763 13.412 113.409 13.304 112.989 13.184C112.293 12.956 111.711 12.734 111.243 12.518C110.775 12.302 110.421 12.032 110.181 11.708C109.953 11.372 109.839 10.946 109.839 10.43C109.839 9.806 109.995 9.272 110.307 8.828C110.631 8.372 111.075 8.018 111.639 7.766C112.215 7.514 112.887 7.388 113.655 7.388C114.327 7.388 114.963 7.496 115.563 7.712C116.163 7.916 116.709 8.252 117.201 8.72L116.229 10.25C115.749 9.878 115.293 9.608 114.861 9.44C114.429 9.26 113.991 9.17 113.547 9.17C113.295 9.17 113.055 9.2 112.827 9.26C112.611 9.32 112.431 9.422 112.287 9.566C112.155 9.698 112.089 9.89 112.089 10.142C112.089 10.37 112.149 10.55 112.269 10.682C112.401 10.802 112.593 10.91 112.845 11.006C113.109 11.102 113.427 11.21 113.799 11.33C114.555 11.546 115.191 11.768 115.707 11.996C116.235 12.224 116.631 12.506 116.895 12.842C117.159 13.166 117.291 13.616 117.291 14.192C117.291 15.128 116.949 15.86 116.265 16.388C115.581 16.916 114.663 17.18 113.511 17.18Z" fill="white"/>
</svg>
