<svg width="147" height="25" viewBox="0 0 147 25" fill="none" xmlns="http://www.w3.org/2000/svg">
<g clip-path="url(#clip0_105_76563)">
<path fill-rule="evenodd" clip-rule="evenodd" d="M0.5 0H25.5V25H0.5V0Z" fill="#FFD700"/>
<path fill-rule="evenodd" clip-rule="evenodd" d="M0.5 0H25.5V12.5H0.5V0Z" fill="#0057B8"/>
</g>
<rect x="1" y="0.5" width="24" height="24" rx="12" stroke="#5BCEFF"/>
<path d="M33.074 19.09V17.038H34.082C34.394 17.038 34.628 16.972 34.784 16.84C34.94 16.708 35.078 16.498 35.198 16.21L35.486 15.58L30.41 6.22H33.146L36.584 13.06L39.572 6.22H42.182L37.088 17.38C36.776 18.016 36.422 18.46 36.026 18.712C35.63 18.964 35.102 19.09 34.442 19.09H33.074ZM43.0941 19V9.568H45.5061V13.132H46.3161L48.8721 9.568H51.5001L48.1521 14.122L51.8601 19H49.1061L46.2801 15.256H45.5061V19H43.0941ZM59.0117 19.18C58.2797 19.18 57.6317 19.018 57.0677 18.694C56.5157 18.358 56.0837 17.908 55.7717 17.344V22.834H53.3597V9.568H55.4657V11.188C55.8257 10.636 56.2817 10.204 56.8337 9.892C57.3857 9.568 58.0157 9.406 58.7237 9.406C59.3597 9.406 59.9417 9.532 60.4697 9.784C61.0097 10.036 61.4777 10.39 61.8737 10.846C62.2697 11.29 62.5757 11.806 62.7917 12.394C63.0197 12.97 63.1337 13.594 63.1337 14.266C63.1337 15.178 62.9537 16.006 62.5937 16.75C62.2457 17.494 61.7597 18.088 61.1357 18.532C60.5237 18.964 59.8157 19.18 59.0117 19.18ZM58.2017 17.128C58.5737 17.128 58.9097 17.05 59.2097 16.894C59.5097 16.738 59.7677 16.528 59.9837 16.264C60.2117 15.988 60.3797 15.682 60.4877 15.346C60.6077 14.998 60.6677 14.638 60.6677 14.266C60.6677 13.87 60.6017 13.504 60.4697 13.168C60.3497 12.832 60.1697 12.538 59.9297 12.286C59.6897 12.022 59.4077 11.818 59.0837 11.674C58.7717 11.53 58.4297 11.458 58.0577 11.458C57.8297 11.458 57.5957 11.5 57.3557 11.584C57.1277 11.656 56.9057 11.764 56.6897 11.908C56.4737 12.052 56.2817 12.22 56.1137 12.412C55.9577 12.604 55.8437 12.814 55.7717 13.042V15.256C55.9157 15.604 56.1077 15.922 56.3477 16.21C56.5997 16.498 56.8877 16.726 57.2117 16.894C57.5357 17.05 57.8657 17.128 58.2017 17.128ZM64.1199 16.21C64.1199 15.598 64.2879 15.064 64.6239 14.608C64.9719 14.14 65.4519 13.78 66.0639 13.528C66.6759 13.276 67.3779 13.15 68.1699 13.15C68.5659 13.15 68.9679 13.18 69.3759 13.24C69.7839 13.3 70.1379 13.396 70.4379 13.528V13.024C70.4379 12.424 70.2579 11.962 69.8979 11.638C69.5499 11.314 69.0279 11.152 68.3319 11.152C67.8159 11.152 67.3239 11.242 66.8559 11.422C66.3879 11.602 65.8959 11.866 65.3799 12.214L64.6059 10.63C65.2299 10.222 65.8659 9.916 66.5139 9.712C67.1739 9.508 67.8639 9.406 68.5839 9.406C69.9279 9.406 70.9719 9.742 71.7159 10.414C72.4719 11.086 72.8499 12.046 72.8499 13.294V16.3C72.8499 16.552 72.8919 16.732 72.9759 16.84C73.0719 16.948 73.2219 17.014 73.4259 17.038V19C73.2099 19.036 73.0119 19.066 72.8319 19.09C72.6639 19.114 72.5199 19.126 72.3999 19.126C71.9199 19.126 71.5539 19.018 71.3019 18.802C71.0619 18.586 70.9119 18.322 70.8519 18.01L70.7979 17.524C70.3899 18.052 69.8799 18.46 69.2679 18.748C68.6559 19.036 68.0319 19.18 67.3959 19.18C66.7719 19.18 66.2079 19.054 65.7039 18.802C65.2119 18.538 64.8219 18.184 64.5339 17.74C64.2579 17.284 64.1199 16.774 64.1199 16.21ZM69.9879 16.696C70.1199 16.552 70.2279 16.408 70.3119 16.264C70.3959 16.12 70.4379 15.988 70.4379 15.868V14.914C70.1499 14.794 69.8379 14.704 69.5019 14.644C69.1659 14.572 68.8479 14.536 68.5479 14.536C67.9239 14.536 67.4079 14.674 66.9999 14.95C66.6039 15.214 66.4059 15.568 66.4059 16.012C66.4059 16.252 66.4719 16.48 66.6039 16.696C66.7359 16.912 66.9279 17.086 67.1799 17.218C67.4319 17.35 67.7319 17.416 68.0799 17.416C68.4399 17.416 68.7939 17.35 69.1419 17.218C69.4899 17.074 69.7719 16.9 69.9879 16.696ZM75.1039 19V9.568H77.5159V19H75.1039ZM73.5739 8.11V5.968H75.5719V8.11H73.5739ZM77.0299 8.11V5.968H79.0279V8.11H77.0299ZM79.6918 19V9.568H82.1038V13.168H85.9198V9.568H88.3318V19H85.9198V15.184H82.1038V19H79.6918ZM94.9295 19.18C94.1615 19.18 93.4715 19.054 92.8595 18.802C92.2475 18.538 91.7255 18.178 91.2935 17.722C90.8615 17.254 90.5255 16.726 90.2855 16.138C90.0575 15.55 89.9435 14.932 89.9435 14.284C89.9435 13.396 90.1415 12.586 90.5375 11.854C90.9455 11.11 91.5215 10.516 92.2655 10.072C93.0095 9.628 93.8915 9.406 94.9115 9.406C95.9315 9.406 96.8075 9.628 97.5395 10.072C98.2715 10.516 98.8175 11.098 99.1775 11.818L96.8195 12.538C96.6155 12.19 96.3455 11.926 96.0095 11.746C95.6735 11.554 95.3015 11.458 94.8935 11.458C94.4375 11.458 94.0175 11.578 93.6335 11.818C93.2615 12.046 92.9675 12.376 92.7515 12.808C92.5355 13.228 92.4275 13.72 92.4275 14.284C92.4275 14.836 92.5355 15.328 92.7515 15.76C92.9795 16.18 93.2795 16.516 93.6515 16.768C94.0235 17.008 94.4375 17.128 94.8935 17.128C95.1815 17.128 95.4515 17.08 95.7035 16.984C95.9675 16.888 96.2015 16.756 96.4055 16.588C96.6095 16.42 96.7595 16.228 96.8555 16.012L99.2135 16.732C98.9975 17.2 98.6795 17.62 98.2595 17.992C97.8515 18.364 97.3655 18.658 96.8015 18.874C96.2495 19.078 95.6255 19.18 94.9295 19.18ZM100.698 19V9.568H103.11V12.538H105.252C106.38 12.538 107.244 12.826 107.844 13.402C108.444 13.978 108.744 14.74 108.744 15.688C108.744 16.324 108.618 16.894 108.366 17.398C108.114 17.902 107.742 18.298 107.25 18.586C106.758 18.862 106.146 19 105.414 19H100.698ZM103.11 17.164H105.036C105.36 17.164 105.624 17.098 105.828 16.966C106.044 16.834 106.2 16.66 106.296 16.444C106.404 16.228 106.458 15.982 106.458 15.706C106.458 15.442 106.41 15.208 106.314 15.004C106.218 14.788 106.062 14.62 105.846 14.5C105.642 14.368 105.366 14.302 105.018 14.302H103.11V17.164ZM110.26 19V9.568H112.672V13.132H113.482L116.038 9.568H118.666L115.318 14.122L119.026 19H116.272L113.446 15.256H112.672V19H110.26ZM119.79 16.21C119.79 15.598 119.958 15.064 120.294 14.608C120.642 14.14 121.122 13.78 121.734 13.528C122.346 13.276 123.048 13.15 123.84 13.15C124.236 13.15 124.638 13.18 125.046 13.24C125.454 13.3 125.808 13.396 126.108 13.528V13.024C126.108 12.424 125.928 11.962 125.568 11.638C125.22 11.314 124.698 11.152 124.002 11.152C123.486 11.152 122.994 11.242 122.526 11.422C122.058 11.602 121.566 11.866 121.05 12.214L120.276 10.63C120.9 10.222 121.536 9.916 122.184 9.712C122.844 9.508 123.534 9.406 124.254 9.406C125.598 9.406 126.642 9.742 127.386 10.414C128.142 11.086 128.52 12.046 128.52 13.294V16.3C128.52 16.552 128.562 16.732 128.646 16.84C128.742 16.948 128.892 17.014 129.096 17.038V19C128.88 19.036 128.682 19.066 128.502 19.09C128.334 19.114 128.19 19.126 128.07 19.126C127.59 19.126 127.224 19.018 126.972 18.802C126.732 18.586 126.582 18.322 126.522 18.01L126.468 17.524C126.06 18.052 125.55 18.46 124.938 18.748C124.326 19.036 123.702 19.18 123.066 19.18C122.442 19.18 121.878 19.054 121.374 18.802C120.882 18.538 120.492 18.184 120.204 17.74C119.928 17.284 119.79 16.774 119.79 16.21ZM125.658 16.696C125.79 16.552 125.898 16.408 125.982 16.264C126.066 16.12 126.108 15.988 126.108 15.868V14.914C125.82 14.794 125.508 14.704 125.172 14.644C124.836 14.572 124.518 14.536 124.218 14.536C123.594 14.536 123.078 14.674 122.67 14.95C122.274 15.214 122.076 15.568 122.076 16.012C122.076 16.252 122.142 16.48 122.274 16.696C122.406 16.912 122.598 17.086 122.85 17.218C123.102 17.35 123.402 17.416 123.75 17.416C124.11 17.416 124.464 17.35 124.812 17.218C125.16 17.074 125.442 16.9 125.658 16.696Z" fill="white"/>
<path d="M140.5 17.5L145.5 12.5L140.5 7.5" stroke="#5BCEFF" stroke-width="1.4" stroke-linecap="round" stroke-linejoin="round"/>
<defs>
<clipPath id="clip0_105_76563">
<rect x="0.5" width="25" height="25" rx="12.5" fill="white"/>
</clipPath>
</defs>
</svg>
