<svg width="158" height="33" viewBox="0 0 158 33" fill="none" xmlns="http://www.w3.org/2000/svg">
<ellipse cx="16.5769" cy="16.5" rx="16.5769" ry="16.5" fill="url(#paint0_linear_103_41804)" fill-opacity="0.6"/>
<path d="M32.6903 16.5C32.6903 25.3547 25.4781 32.5365 16.5769 32.5365C7.67566 32.5365 0.463483 25.3547 0.463483 16.5C0.463483 7.6453 7.67566 0.463483 16.5769 0.463483C25.4781 0.463483 32.6903 7.6453 32.6903 16.5Z" stroke="url(#paint1_linear_103_41804)" stroke-opacity="0.6" stroke-width="0.926966"/>
<path fill-rule="evenodd" clip-rule="evenodd" d="M17.8193 7.85693C18.4881 7.85693 19.0302 8.29817 19.0302 8.84248V15.2484H21.5452C23.5515 15.2484 25.178 16.5722 25.178 18.2051V23.6255C25.178 24.1698 24.6358 24.6111 23.9671 24.6111C23.2983 24.6111 22.7561 24.1698 22.7561 23.6255V18.2051C22.7561 17.6608 22.214 17.2196 21.5452 17.2196H19.0302V18.0646C19.0302 18.6089 18.4881 19.0501 17.8193 19.0501C17.1505 19.0501 16.6084 18.6089 16.6084 18.0646V8.84248C16.6084 8.29817 17.1505 7.85693 17.8193 7.85693Z" fill="white"/>
<path fill-rule="evenodd" clip-rule="evenodd" d="M7.10474 16.2409C7.10474 15.6915 7.64587 15.2461 8.3134 15.2461H16.681C17.3486 15.2461 17.8897 15.6915 17.8897 16.2409C17.8897 16.7903 17.3486 17.2356 16.681 17.2356H8.3134C7.64587 17.2356 7.10474 16.7903 7.10474 16.2409Z" fill="white"/>
<path fill-rule="evenodd" clip-rule="evenodd" d="M12.6016 7.86377C13.2735 7.86377 13.8183 8.30501 13.8183 8.84927V21.6613C13.8183 22.2056 14.363 22.6468 15.0349 22.6468H15.5205C16.1925 22.6468 16.7371 23.088 16.7371 23.6324C16.7371 24.1767 16.1925 24.6179 15.5205 24.6179H15.0349C13.0191 24.6179 11.385 24.6179 11.385 21.6613V8.84927C11.385 8.30501 11.9297 7.86377 12.6016 7.86377Z" fill="white"/>
<path fill-rule="evenodd" clip-rule="evenodd" d="M17.8428 7.86377C17.1709 7.86377 16.6262 8.30501 16.6262 8.84927V21.6613C16.6262 22.2056 16.0815 22.6468 15.4095 22.6468H14.9239C14.252 22.6468 13.7073 23.088 13.7073 23.6324C13.7073 24.1767 14.252 24.6179 14.9239 24.6179H15.4095C17.4253 24.6179 19.0594 24.6179 19.0594 21.6613V8.84927C19.0594 8.30501 18.5147 7.86377 17.8428 7.86377Z" fill="white"/>
<path d="M47.3396 8.38504H50.432L56.1972 23.9955H53.0606L51.6027 20.1039H46.1247L44.6889 23.9955H41.5522L47.3396 8.38504ZM51.0505 17.9712L48.8858 11.5291L46.6327 17.9712H51.0505Z" fill="white"/>
<path d="M65.0882 23.4019C64.8379 23.5045 64.536 23.6217 64.1826 23.7536C63.8292 23.8856 63.4463 23.9882 63.034 24.0615C62.6364 24.1494 62.2314 24.1934 61.8191 24.1934C61.2742 24.1934 60.7735 24.0981 60.317 23.9076C59.8605 23.717 59.4924 23.4165 59.2126 23.0061C58.9475 22.581 58.815 22.0314 58.815 21.3571V14.7392H57.2908V12.4745H58.815V8.73683H61.7749V12.4745H64.2047V14.7392H61.7749V20.3677C61.7896 20.7635 61.9001 21.0493 62.1062 21.2252C62.3124 21.4011 62.5701 21.489 62.8793 21.489C63.1886 21.489 63.4905 21.4377 63.785 21.3351C64.0795 21.2325 64.3151 21.1446 64.4918 21.0713L65.0882 23.4019Z" fill="white"/>
<path d="M78.4916 23.9955H75.5317V17.5315C75.5317 16.6373 75.355 15.9704 75.0015 15.5307C74.6628 15.0909 74.1916 14.8711 73.5878 14.8711C73.2344 14.8711 72.8589 14.9737 72.4613 15.1789C72.0637 15.3841 71.7029 15.6699 71.3789 16.0364C71.0697 16.3882 70.8414 16.7986 70.6942 17.2676V23.9955H67.7343V7.94531H70.6942V14.6072C71.1212 13.8744 71.7029 13.3027 72.4392 12.8923C73.1755 12.4819 73.9781 12.2767 74.8469 12.2767C75.5979 12.2767 76.2091 12.4086 76.6803 12.6724C77.1515 12.9216 77.5197 13.2661 77.7847 13.7058C78.0498 14.1309 78.2339 14.6146 78.337 15.1569C78.44 15.6846 78.4916 16.2342 78.4916 16.8059V23.9955Z" fill="white"/>
<path d="M87.5374 24.2154C86.6096 24.2154 85.7703 24.0615 85.0192 23.7536C84.2682 23.4312 83.6276 22.9988 83.0975 22.4564C82.5674 21.8994 82.155 21.2692 81.8605 20.5656C81.5807 19.8474 81.4408 19.0925 81.4408 18.301C81.4408 17.2017 81.6838 16.1976 82.1698 15.2888C82.6704 14.38 83.3773 13.6545 84.2903 13.1122C85.218 12.5552 86.3078 12.2767 87.5595 12.2767C88.8259 12.2767 89.9083 12.5552 90.8065 13.1122C91.7048 13.6545 92.3896 14.38 92.8608 15.2888C93.3468 16.1829 93.5898 17.1504 93.5898 18.191C93.5898 18.3669 93.5824 18.5502 93.5677 18.7407C93.5529 18.9166 93.5382 19.0632 93.5235 19.1804H84.5774C84.6364 19.7668 84.8057 20.2798 85.0855 20.7195C85.38 21.1592 85.7482 21.4964 86.1899 21.7309C86.6465 21.9507 87.1324 22.0607 87.6478 22.0607C88.2369 22.0607 88.7891 21.9214 89.3045 21.6429C89.8346 21.3498 90.1954 20.9687 90.3869 20.4996L92.9271 21.2032C92.6473 21.7895 92.2423 22.3099 91.7122 22.7643C91.1968 23.2186 90.5857 23.5778 89.8788 23.8416C89.172 24.0908 88.3915 24.2154 87.5374 24.2154ZM84.5112 17.3116H90.5636C90.5047 16.7253 90.3353 16.2196 90.0555 15.7945C89.7905 15.3548 89.437 15.0177 88.9952 14.7831C88.5535 14.534 88.0601 14.4094 87.5153 14.4094C86.9851 14.4094 86.4992 14.534 86.0574 14.7831C85.6304 15.0177 85.2769 15.3548 84.9971 15.7945C84.7321 16.2196 84.5701 16.7253 84.5112 17.3116Z" fill="white"/>
<path d="M107.255 23.9955H104.295V17.5315C104.295 16.608 104.133 15.9338 103.809 15.5087C103.485 15.0836 103.036 14.8711 102.461 14.8711C102.064 14.8711 101.659 14.9737 101.247 15.1789C100.849 15.3841 100.488 15.6699 100.164 16.0364C99.8402 16.3882 99.6046 16.7986 99.4573 17.2676V23.9955H96.4974V12.4745H99.1702V14.6072C99.4647 14.1089 99.8402 13.6911 100.297 13.354C100.753 13.0022 101.276 12.7384 101.865 12.5625C102.469 12.3719 103.102 12.2767 103.765 12.2767C104.486 12.2767 105.075 12.4086 105.532 12.6724C106.003 12.9216 106.356 13.2661 106.592 13.7058C106.842 14.1309 107.012 14.6146 107.1 15.1569C107.203 15.6992 107.255 16.2489 107.255 16.8059V23.9955Z" fill="white"/>
<path d="M116.301 24.2154C115.373 24.2154 114.533 24.0615 113.782 23.7536C113.031 23.4312 112.391 22.9988 111.861 22.4564C111.33 21.8994 110.918 21.2692 110.624 20.5656C110.344 19.8474 110.204 19.0925 110.204 18.301C110.204 17.2017 110.447 16.1976 110.933 15.2888C111.434 14.38 112.14 13.6545 113.053 13.1122C113.981 12.5552 115.071 12.2767 116.323 12.2767C117.589 12.2767 118.671 12.5552 119.57 13.1122C120.468 13.6545 121.153 14.38 121.624 15.2888C122.11 16.1829 122.353 17.1504 122.353 18.191C122.353 18.3669 122.346 18.5502 122.331 18.7407C122.316 18.9166 122.301 19.0632 122.287 19.1804H113.341C113.399 19.7668 113.569 20.2798 113.849 20.7195C114.143 21.1592 114.511 21.4964 114.953 21.7309C115.41 21.9507 115.896 22.0607 116.411 22.0607C117 22.0607 117.552 21.9214 118.068 21.6429C118.598 21.3498 118.959 20.9687 119.15 20.4996L121.69 21.2032C121.41 21.7895 121.005 22.3099 120.475 22.7643C119.96 23.2186 119.349 23.5778 118.642 23.8416C117.935 24.0908 117.155 24.2154 116.301 24.2154ZM113.274 17.3116H119.327C119.268 16.7253 119.098 16.2196 118.819 15.7945C118.554 15.3548 118.2 15.0177 117.758 14.7831C117.317 14.534 116.823 14.4094 116.278 14.4094C115.748 14.4094 115.262 14.534 114.821 14.7831C114.394 15.0177 114.04 15.3548 113.76 15.7945C113.495 16.2196 113.333 16.7253 113.274 17.3116Z" fill="white"/>
<path d="M125.15 19.6861V12.4745H128.11V19.0485C128.11 19.928 128.272 20.5949 128.596 21.0493C128.92 21.489 129.399 21.7089 130.032 21.7089C130.415 21.7089 130.79 21.6356 131.158 21.489C131.541 21.3278 131.887 21.0933 132.196 20.7855C132.52 20.4777 132.793 20.0892 133.014 19.6202V12.4745H135.974V20.6975C135.974 21.0053 136.025 21.2252 136.128 21.3571C136.246 21.489 136.43 21.5696 136.681 21.599V23.9955C136.386 24.0395 136.136 24.0688 135.93 24.0834C135.738 24.1128 135.561 24.1274 135.399 24.1274C134.869 24.1274 134.435 24.0102 134.096 23.7756C133.772 23.5265 133.581 23.1893 133.522 22.7643L133.456 21.8408C132.94 22.6177 132.277 23.2113 131.468 23.6217C130.658 24.0175 129.767 24.2154 128.795 24.2154C127.602 24.2154 126.696 23.8343 126.078 23.0721C125.459 22.2952 125.15 21.1666 125.15 19.6861Z" fill="white"/>
<path d="M158 23.9955H155.04V17.5315C155.04 16.6227 154.878 15.9557 154.554 15.5307C154.245 15.0909 153.81 14.8711 153.251 14.8711C152.677 14.8711 152.124 15.0983 151.594 15.5527C151.079 15.9924 150.711 16.5714 150.49 17.2896V23.9955H147.53V17.5315C147.53 16.608 147.368 15.9338 147.044 15.5087C146.735 15.0836 146.3 14.8711 145.741 14.8711C145.166 14.8711 144.614 15.0909 144.084 15.5307C143.569 15.9704 143.2 16.5494 142.98 17.2676V23.9955H140.02V12.4745H142.692V14.6072C143.134 13.8597 143.723 13.288 144.459 12.8923C145.196 12.4819 146.043 12.2767 147 12.2767C147.957 12.2767 148.701 12.5112 149.231 12.9802C149.776 13.4493 150.122 14.0283 150.269 14.7172C150.74 13.9257 151.337 13.3247 152.058 12.9143C152.794 12.4892 153.619 12.2767 154.532 12.2767C155.254 12.2767 155.835 12.4086 156.277 12.6724C156.734 12.9216 157.087 13.2661 157.337 13.7058C157.588 14.1309 157.757 14.6146 157.845 15.1569C157.948 15.6992 158 16.2489 158 16.8059V23.9955Z" fill="white"/>
<defs>
<linearGradient id="paint0_linear_103_41804" x1="26.8155" y1="3.51838" x2="3.40034" y2="27.0427" gradientUnits="userSpaceOnUse">
<stop stop-color="#18C8FF"/>
<stop offset="1" stop-color="#933FFE"/>
</linearGradient>
<linearGradient id="paint1_linear_103_41804" x1="5.29539" y1="-7.5625" x2="24.4888" y2="33.0691" gradientUnits="userSpaceOnUse">
<stop stop-color="white" stop-opacity="0.5"/>
<stop offset="1" stop-color="white" stop-opacity="0.1"/>
</linearGradient>
</defs>
</svg>
