<svg width="17" height="22" viewBox="0 0 17 22" fill="none" xmlns="http://www.w3.org/2000/svg">
<path fill-rule="evenodd" clip-rule="evenodd" d="M16.5346 9.09547C16.8721 6.83878 15.1541 5.62564 12.8048 4.81634L13.5675 1.75937L11.7063 1.29563L10.9638 4.27204C10.4751 4.15015 9.97273 4.03514 9.4735 3.92119L10.2213 0.925166L8.36169 0.461426L7.59847 3.51734C7.19358 3.42512 6.7961 3.33396 6.41029 3.23804L6.41241 3.2285L3.84632 2.58774L3.35095 4.5752C3.35095 4.5752 4.73151 4.8916 4.70236 4.91121C5.45597 5.09936 5.59261 5.59808 5.56922 5.99345L4.70046 9.476C4.7524 9.48925 4.8197 9.50833 4.89389 9.53801L4.69781 9.48925L3.47953 14.3678C3.38727 14.5968 3.15348 14.9402 2.62669 14.8098C2.64524 14.8368 1.27422 14.4722 1.27422 14.4722L0.350063 16.6028L2.772 17.2064C3.04531 17.2749 3.31531 17.3454 3.58234 17.415L3.58267 17.4151C3.75565 17.4602 3.92738 17.505 4.09797 17.5488L3.32733 20.6413L5.18591 21.105L5.94966 18.0459C6.45683 18.1837 6.9497 18.3109 7.43197 18.4307L6.6714 21.4755L8.53211 21.9392L9.30275 18.8531C12.4757 19.4536 14.8623 19.2114 15.8661 16.342C16.6758 14.0313 15.827 12.6983 14.1577 11.8286C15.3735 11.5472 16.2895 10.7474 16.5341 9.09547H16.5346ZM12.2815 15.0574C11.7529 17.1783 8.4327 16.3007 6.91492 15.8996C6.779 15.8637 6.65754 15.8316 6.55383 15.8058L7.5764 11.7095C7.70316 11.7411 7.85803 11.7759 8.03347 11.8153C9.6037 12.1676 12.8217 12.8898 12.2821 15.0574H12.2815ZM8.34929 9.91443C9.61573 10.2523 12.3763 10.9888 12.8575 9.06221C13.3496 7.09122 10.6652 6.49716 9.35422 6.20703C9.20684 6.17441 9.07681 6.14564 8.97061 6.11918L8.04351 9.8344C8.13117 9.85624 8.23404 9.88369 8.34929 9.91443Z" fill="#F7931A"/>
</svg>
