<svg width="131" height="28" viewBox="0 0 131 28" fill="none" xmlns="http://www.w3.org/2000/svg">
<ellipse cx="13.7441" cy="14" rx="13.7441" ry="14" fill="url(#paint0_linear_105_50695)" fill-opacity="0.6"/>
<path d="M27.0248 14C27.0248 21.4841 21.0708 27.5365 13.7441 27.5365C6.41745 27.5365 0.463483 21.4841 0.463483 14C0.463483 6.51589 6.41745 0.463483 13.7441 0.463483C21.0708 0.463483 27.0248 6.51589 27.0248 14Z" stroke="url(#paint1_linear_105_50695)" stroke-opacity="0.6" stroke-width="0.926966"/>
<path fill-rule="evenodd" clip-rule="evenodd" d="M14.7743 6.66626C15.3287 6.66626 15.7782 7.04064 15.7782 7.50248V12.9378H17.8635C19.5269 12.9378 20.8754 14.061 20.8754 15.4465V20.0457C20.8754 20.5075 20.4259 20.8819 19.8714 20.8819C19.317 20.8819 18.8674 20.5075 18.8674 20.0457V15.4465C18.8674 14.9847 18.4179 14.6103 17.8635 14.6103H15.7782V15.3273C15.7782 15.7891 15.3287 16.1635 14.7743 16.1635C14.2198 16.1635 13.7703 15.7891 13.7703 15.3273V7.50248C13.7703 7.04064 14.2198 6.66626 14.7743 6.66626Z" fill="white"/>
<path fill-rule="evenodd" clip-rule="evenodd" d="M5.89062 13.7801C5.89062 13.314 6.33929 12.936 6.89274 12.936H13.8305C14.3839 12.936 14.8326 13.314 14.8326 13.7801C14.8326 14.2463 14.3839 14.6241 13.8305 14.6241H6.89274C6.33929 14.6241 5.89062 14.2463 5.89062 13.7801Z" fill="white"/>
<path fill-rule="evenodd" clip-rule="evenodd" d="M10.4482 6.67188C11.0053 6.67188 11.4569 7.04626 11.4569 7.50806V18.3789C11.4569 18.8407 11.9085 19.2151 12.4656 19.2151H12.8683C13.4254 19.2151 13.877 19.5894 13.877 20.0513C13.877 20.5131 13.4254 20.8875 12.8683 20.8875H12.4656C10.7943 20.8875 9.43945 20.8875 9.43945 18.3789V7.50806C9.43945 7.04626 9.89106 6.67188 10.4482 6.67188Z" fill="white"/>
<path fill-rule="evenodd" clip-rule="evenodd" d="M14.7938 6.67188C14.2367 6.67188 13.7851 7.04626 13.7851 7.50806V18.3789C13.7851 18.8407 13.3335 19.2151 12.7764 19.2151H12.3737C11.8166 19.2151 11.365 19.5894 11.365 20.0513C11.365 20.5131 11.8166 20.8875 12.3737 20.8875H12.7764C14.4477 20.8875 15.8025 20.8875 15.8025 18.3789V7.50806C15.8025 7.04626 15.3509 6.67188 14.7938 6.67188Z" fill="white"/>
<path d="M39.2498 7.11456H41.8138L46.5938 20.3598H43.9932L42.7844 17.0578H38.2425L37.052 20.3598H34.4514L39.2498 7.11456ZM42.3266 15.2483L40.5318 9.78226L38.6637 15.2483H42.3266Z" fill="white"/>
<path d="M53.9654 19.8561C53.7579 19.9432 53.5076 20.0427 53.2146 20.1546C52.9215 20.2665 52.6041 20.3536 52.2622 20.4158C51.9326 20.4904 51.5968 20.5277 51.2549 20.5277C50.8032 20.5277 50.388 20.4469 50.0096 20.2852C49.6311 20.1235 49.3258 19.8685 49.0938 19.5203C48.8741 19.1596 48.7642 18.6933 48.7642 18.1212V12.5059H47.5005V10.5844H48.7642V7.41304H51.2183V10.5844H53.2329V12.5059H51.2183V17.2817C51.2305 17.6175 51.3221 17.86 51.493 18.0092C51.6639 18.1585 51.8776 18.2331 52.134 18.2331C52.3904 18.2331 52.6407 18.1896 52.8849 18.1025C53.1291 18.0155 53.3244 17.9408 53.471 17.8786L53.9654 19.8561Z" fill="white"/>
<path d="M65.0784 20.3598H62.6242V14.8751C62.6242 14.1165 62.4777 13.5506 62.1847 13.1775C61.9039 12.8044 61.5132 12.6179 61.0126 12.6179C60.7196 12.6179 60.4082 12.7049 60.0786 12.879C59.7489 13.0532 59.4498 13.2957 59.1812 13.6066C58.9248 13.9051 58.7355 14.2533 58.6134 14.6513V20.3598H56.1593V6.74146H58.6134V12.394C58.9675 11.7722 59.4498 11.2871 60.0602 10.9389C60.6707 10.5907 61.3361 10.4165 62.0565 10.4165C62.6792 10.4165 63.1859 10.5285 63.5766 10.7523C63.9673 10.9638 64.2725 11.256 64.4923 11.6291C64.7121 11.9898 64.8647 12.4002 64.9502 12.8604C65.0356 13.3081 65.0784 13.7745 65.0784 14.2595V20.3598Z" fill="white"/>
<path d="M72.5783 20.5463C71.8091 20.5463 71.1132 20.4158 70.4905 20.1546C69.8678 19.881 69.3367 19.5141 68.8972 19.0539C68.4576 18.5813 68.1158 18.0465 67.8716 17.4496C67.6396 16.8402 67.5236 16.1997 67.5236 15.5281C67.5236 14.5953 67.7251 13.7434 68.128 12.9723C68.5431 12.2012 69.1292 11.5856 69.8861 11.1254C70.6553 10.6528 71.5588 10.4165 72.5967 10.4165C73.6467 10.4165 74.5441 10.6528 75.2889 11.1254C76.0336 11.5856 76.6014 12.2012 76.9921 12.9723C77.395 13.731 77.5965 14.5518 77.5965 15.4348C77.5965 15.584 77.5904 15.7395 77.5781 15.9012C77.5659 16.0504 77.5537 16.1748 77.5415 16.2743H70.1242C70.1731 16.7718 70.3135 17.2071 70.5455 17.5802C70.7896 17.9533 71.0949 18.2393 71.4612 18.4383C71.8397 18.6249 72.2426 18.7181 72.6699 18.7181C73.1583 18.7181 73.6162 18.6 74.0435 18.3637C74.483 18.1149 74.7822 17.7916 74.9409 17.3936L77.047 17.9906C76.8151 18.4881 76.4793 18.9296 76.0397 19.3151C75.6124 19.7006 75.1057 20.0053 74.5197 20.2292C73.9336 20.4406 73.2865 20.5463 72.5783 20.5463ZM70.0693 14.6886H75.0874C75.0386 14.1911 74.8982 13.7621 74.6662 13.4014C74.4464 13.0283 74.1534 12.7422 73.7871 12.5432C73.4208 12.3318 73.0118 12.2261 72.56 12.2261C72.1205 12.2261 71.7176 12.3318 71.3513 12.5432C70.9972 12.7422 70.7042 13.0283 70.4722 13.4014C70.2524 13.7621 70.1181 14.1911 70.0693 14.6886Z" fill="white"/>
<path d="M88.9263 20.3598H86.4722V14.8751C86.4722 14.0916 86.3379 13.5195 86.0693 13.1589C85.8006 12.7982 85.4283 12.6179 84.9521 12.6179C84.6224 12.6179 84.2867 12.7049 83.9448 12.879C83.6151 13.0532 83.316 13.2957 83.0474 13.6066C82.7788 13.9051 82.5834 14.2533 82.4613 14.6513V20.3598H80.0072V10.5844H82.2233V12.394C82.4674 11.9711 82.7788 11.6167 83.1573 11.3306C83.5358 11.0322 83.9692 10.8083 84.4576 10.6591C84.9582 10.4974 85.4832 10.4165 86.0326 10.4165C86.6309 10.4165 87.1193 10.5285 87.4978 10.7523C87.8885 10.9638 88.1815 11.256 88.3769 11.6291C88.5844 11.9898 88.7248 12.4002 88.7981 12.8604C88.8836 13.3205 88.9263 13.7869 88.9263 14.2595V20.3598Z" fill="white"/>
<path d="M96.4263 20.5463C95.6571 20.5463 94.9611 20.4158 94.3384 20.1546C93.7158 19.881 93.1846 19.5141 92.7451 19.0539C92.3056 18.5813 91.9637 18.0465 91.7195 17.4496C91.4875 16.8402 91.3715 16.1997 91.3715 15.5281C91.3715 14.5953 91.573 13.7434 91.9759 12.9723C92.391 12.2012 92.9771 11.5856 93.7341 11.1254C94.5033 10.6528 95.4068 10.4165 96.4446 10.4165C97.4946 10.4165 98.392 10.6528 99.1368 11.1254C99.8816 11.5856 100.449 12.2012 100.84 12.9723C101.243 13.731 101.444 14.5518 101.444 15.4348C101.444 15.584 101.438 15.7395 101.426 15.9012C101.414 16.0504 101.402 16.1748 101.389 16.2743H93.9722C94.021 16.7718 94.1614 17.2071 94.3934 17.5802C94.6376 17.9533 94.9428 18.2393 95.3091 18.4383C95.6876 18.6249 96.0905 18.7181 96.5178 18.7181C97.0062 18.7181 97.4641 18.6 97.8914 18.3637C98.331 18.1149 98.6301 17.7916 98.7888 17.3936L100.895 17.9906C100.663 18.4881 100.327 18.9296 99.8877 19.3151C99.4603 19.7006 98.9537 20.0053 98.3676 20.2292C97.7815 20.4406 97.1344 20.5463 96.4263 20.5463ZM93.9172 14.6886H98.9353C98.8865 14.1911 98.7461 13.7621 98.5141 13.4014C98.2943 13.0283 98.0013 12.7422 97.635 12.5432C97.2687 12.3318 96.8597 12.2261 96.408 12.2261C95.9684 12.2261 95.5655 12.3318 95.1992 12.5432C94.8451 12.7422 94.5521 13.0283 94.3201 13.4014C94.1004 13.7621 93.9661 14.1911 93.9172 14.6886Z" fill="white"/>
<path d="M103.764 16.7034V10.5844H106.218V16.1624C106.218 16.9086 106.352 17.4744 106.621 17.86C106.889 18.2331 107.286 18.4196 107.811 18.4196C108.128 18.4196 108.44 18.3575 108.745 18.2331C109.063 18.0963 109.349 17.8973 109.606 17.6361C109.874 17.375 110.1 17.0454 110.283 16.6474V10.5844H112.738V17.5615C112.738 17.8227 112.78 18.0092 112.866 18.1212C112.963 18.2331 113.116 18.3015 113.324 18.3264V20.3598C113.079 20.3971 112.872 20.422 112.701 20.4344C112.542 20.4593 112.396 20.4717 112.261 20.4717C111.822 20.4717 111.462 20.3722 111.181 20.1732C110.912 19.9618 110.754 19.6758 110.705 19.3151L110.65 18.5316C110.222 19.1907 109.673 19.6944 109.001 20.0427C108.33 20.3784 107.591 20.5463 106.785 20.5463C105.796 20.5463 105.046 20.223 104.533 19.5763C104.02 18.9171 103.764 17.9595 103.764 16.7034Z" fill="white"/>
<path d="M131 20.3598H128.546V14.8751C128.546 14.1041 128.412 13.5382 128.143 13.1775C127.887 12.8044 127.526 12.6179 127.062 12.6179C126.586 12.6179 126.128 12.8106 125.689 13.1962C125.261 13.5693 124.956 14.0605 124.773 14.6699V20.3598H122.319V14.8751C122.319 14.0916 122.185 13.5195 121.916 13.1589C121.66 12.7982 121.299 12.6179 120.836 12.6179C120.359 12.6179 119.901 12.8044 119.462 13.1775C119.035 13.5506 118.729 14.0419 118.546 14.6513V20.3598H116.092V10.5844H118.308V12.394C118.674 11.7597 119.163 11.2747 119.773 10.9389C120.384 10.5907 121.086 10.4165 121.879 10.4165C122.673 10.4165 123.29 10.6155 123.729 11.0135C124.181 11.4115 124.468 11.9027 124.59 12.4873C124.981 11.8157 125.475 11.3058 126.073 10.9575C126.684 10.5969 127.368 10.4165 128.125 10.4165C128.723 10.4165 129.205 10.5285 129.571 10.7523C129.95 10.9638 130.243 11.256 130.451 11.6291C130.658 11.9898 130.798 12.4002 130.872 12.8604C130.957 13.3205 131 13.7869 131 14.2595V20.3598Z" fill="white"/>
<defs>
<linearGradient id="paint0_linear_105_50695" x1="22.2331" y1="2.98529" x2="2.36887" y2="22.4865" gradientUnits="userSpaceOnUse">
<stop stop-color="#18C8FF"/>
<stop offset="1" stop-color="#933FFE"/>
</linearGradient>
<linearGradient id="paint1_linear_105_50695" x1="4.39048" y1="-6.41667" x2="20.9138" y2="27.7639" gradientUnits="userSpaceOnUse">
<stop stop-color="white" stop-opacity="0.5"/>
<stop offset="1" stop-color="white" stop-opacity="0.1"/>
</linearGradient>
</defs>
</svg>
