<svg width="1366" height="1073" viewBox="0 0 1366 1073" fill="none" xmlns="http://www.w3.org/2000/svg">
<path d="M1098.73 590.633C1092.26 616.157 1074.17 637.491 1046.92 654.203C1019.66 670.917 983.263 682.99 940.251 689.989C854.23 703.986 741.854 697.671 623.523 667.706C505.192 637.74 403.354 589.809 334.363 536.557C299.866 509.931 273.6 481.989 257.582 454.316C241.566 426.646 235.812 399.274 242.275 373.751C248.739 348.227 266.827 326.893 294.082 310.181C321.34 293.467 357.739 281.394 400.751 274.395C486.772 260.398 599.148 266.713 717.479 296.678C835.81 326.644 937.648 374.575 1006.64 427.827C1041.14 454.453 1067.4 482.395 1083.42 510.068C1099.44 537.738 1105.19 565.109 1098.73 590.633Z" stroke="url(#paint0_radial_51_6766)" stroke-opacity="0.2" stroke-width="0.953282"/>
<path d="M1292.89 639.802C1283.48 676.956 1257.16 707.994 1217.52 732.296C1177.89 756.599 1124.97 774.148 1062.46 784.319C937.445 804.662 774.14 795.483 602.192 751.94C430.243 708.397 282.252 638.745 181.983 561.352C131.848 522.655 93.6627 482.037 70.3718 441.798C47.0824 401.563 38.7003 361.735 48.109 324.581C57.5176 287.427 83.8452 256.389 123.478 232.088C163.113 207.784 216.028 190.236 278.538 180.065C403.557 159.722 566.862 168.901 738.81 212.444C910.759 255.987 1058.75 325.639 1159.02 403.032C1209.15 441.729 1247.34 482.347 1270.63 522.585C1293.92 562.821 1302.3 602.648 1292.89 639.802Z" stroke="url(#paint1_radial_51_6766)" stroke-opacity="0.3" stroke-width="0.953282"/>
<path d="M1529.16 699.633C1516.16 750.939 1479.81 793.784 1425.12 827.321C1370.42 860.86 1297.41 885.07 1211.17 899.102C1038.7 927.166 813.426 914.502 576.235 854.438C339.044 794.373 134.892 698.291 -3.43509 591.522C-72.5993 538.138 -125.288 482.096 -157.429 426.567C-189.569 371.041 -201.148 316.058 -188.156 264.752C-175.164 213.446 -138.811 170.6 -84.1173 137.063C-29.4213 103.525 43.5902 79.3143 129.827 65.2823C302.298 37.2184 527.574 49.8821 764.765 109.947C1001.96 170.012 1206.11 266.094 1344.44 372.862C1413.6 426.247 1466.29 482.289 1498.43 537.817C1530.57 593.343 1542.15 648.327 1529.16 699.633Z" stroke="url(#paint2_radial_51_6766)" stroke-opacity="0.3" stroke-width="0.953282"/>
<g filter="url(#filter0_bd_51_6766)">
<path d="M362 684C378.569 684 392 670.569 392 654C392 637.431 378.569 624 362 624C345.431 624 332 637.431 332 654C332 670.569 345.431 684 362 684Z" fill="#4A90E2" fill-opacity="0.2" shape-rendering="crispEdges"/>
</g>
<path fill-rule="evenodd" clip-rule="evenodd" d="M346.196 663.227C347.663 663.227 348.853 662.013 348.853 660.516C348.853 659.019 347.663 657.806 346.196 657.806C344.728 657.806 343.538 659.019 343.538 660.516C343.538 662.013 344.728 663.227 346.196 663.227Z" fill="#4A90E2"/>
<path fill-rule="evenodd" clip-rule="evenodd" d="M362.028 652.498H362.25C363.577 652.611 364.629 653.741 364.685 655.095C364.685 656.619 363.522 657.806 362.028 657.806C360.534 657.806 359.371 656.563 359.371 655.095C359.371 653.175 358.762 652.441 356.713 652.441C354.664 652.441 354.056 653.175 354.056 655.152V655.322C354.001 656.676 352.837 657.806 351.454 657.806C349.96 657.806 348.797 656.563 348.797 655.095C348.797 653.685 349.85 652.555 351.177 652.441H351.399C353.723 652.441 354.056 651.934 354.056 649.788C354.056 648.264 355.275 647.077 356.713 647.077C358.207 647.077 359.371 648.32 359.371 649.788C359.371 651.934 359.703 652.498 362.028 652.498ZM375.203 649.788C375.203 648.264 376.421 647.077 377.86 647.077C379.298 647.077 380.462 648.264 380.462 649.674C380.462 651.198 379.243 652.385 377.804 652.385C375.755 652.385 375.147 653.119 375.147 655.095V655.265C375.092 656.676 373.928 657.806 372.545 657.806H372.49C370.497 657.862 369.888 658.596 369.888 660.516V660.743C369.833 662.097 368.67 663.227 367.287 663.227C365.793 663.227 364.629 661.984 364.629 660.516C364.629 659.162 365.682 658.032 367.009 657.862C367.065 657.806 367.176 657.806 367.287 657.806C369.555 657.806 369.944 657.299 369.944 655.209V655.152C369.944 653.741 370.996 652.611 372.324 652.498H372.545C374.87 652.498 375.203 651.934 375.203 649.788Z" fill="#4A90E2"/>
<g filter="url(#filter1_bd_51_6766)">
<path d="M1258 723C1282.3 723 1302 703.301 1302 679C1302 654.699 1282.3 635 1258 635C1233.7 635 1214 654.699 1214 679C1214 703.301 1233.7 723 1258 723Z" fill="#C619C2" fill-opacity="0.2" shape-rendering="crispEdges"/>
</g>
<path fill-rule="evenodd" clip-rule="evenodd" d="M1243.29 665.797H1255.05L1242.77 695.706H1231.02L1243.29 665.797Z" fill="url(#paint3_linear_51_6766)"/>
<path fill-rule="evenodd" clip-rule="evenodd" d="M1273.13 665.797H1284.91L1270.96 695.778H1259.19L1273.13 665.797Z" fill="url(#paint4_linear_51_6766)"/>
<path fill-rule="evenodd" clip-rule="evenodd" d="M1243.29 665.797H1255.05L1270.97 695.778H1259.2L1243.29 665.797Z" fill="url(#paint5_linear_51_6766)"/>
<path fill-rule="evenodd" clip-rule="evenodd" d="M1242.77 695.706H1231.02L1255.04 665.797L1242.77 695.706Z" fill="black" fill-opacity="0.0274914"/>
<path fill-rule="evenodd" clip-rule="evenodd" d="M1259.19 695.87H1270.94L1243.29 665.797L1259.19 695.87Z" fill="black" fill-opacity="0.0549828"/>
<path fill-rule="evenodd" clip-rule="evenodd" d="M1259.19 695.87H1270.94L1255.04 665.797L1259.19 695.87Z" fill="black" fill-opacity="0.0549828"/>
<path fill-rule="evenodd" clip-rule="evenodd" d="M1259.19 695.87H1270.94L1273.08 665.563L1259.19 695.87Z" fill="black" fill-opacity="0.0549828"/>
<path fill-rule="evenodd" clip-rule="evenodd" d="M1259.19 695.87H1270.94L1284.91 665.797L1259.19 695.87Z" fill="black" fill-opacity="0.0549828"/>
<g filter="url(#filter2_bd_51_6766)">
<path d="M125.901 279.288C117.063 297.4 95.2143 304.921 77.1001 296.087C58.9948 287.254 51.4761 265.408 60.3145 247.297C69.1502 229.182 90.9986 221.659 109.107 230.492C127.22 239.326 134.737 261.175 125.9 279.288L125.901 279.288Z" fill="#F7931A" fill-opacity="0.2" shape-rendering="crispEdges"/>
</g>
<path fill-rule="evenodd" clip-rule="evenodd" d="M104.742 261.428C105.909 258.308 103.824 256.054 100.715 254.185L102.732 250.051L100.214 248.823L98.2505 252.849C97.5897 252.526 96.9071 252.209 96.2288 251.895L98.2062 247.844L95.6912 246.617L93.6737 250.749C93.1234 250.495 92.5835 250.244 92.0616 249.99L92.0675 249.977L88.5974 248.283L87.2867 250.971C87.2867 250.971 89.1622 251.842 89.1146 251.861C90.1337 252.358 90.1775 253.112 90.0241 253.669L87.7263 258.379C87.7964 258.414 87.8867 258.462 87.9837 258.526L87.7184 258.397L84.4977 264.994C84.2965 265.293 83.8584 265.713 83.1456 265.367C83.1639 265.411 81.3167 264.474 81.3167 264.474L79.3501 267.236L82.6257 268.834C82.9953 269.014 83.3597 269.197 83.72 269.378L83.7202 269.378C83.9535 269.495 84.1851 269.611 84.4153 269.725L82.3761 273.907L84.8895 275.134L86.9088 270.997C87.5913 271.348 88.2565 271.679 88.9089 271.996L86.8985 276.114L89.415 277.341L91.4523 273.168C95.8013 274.988 99.2831 275.367 101.588 271.574C103.445 268.52 102.638 266.358 100.518 264.61C102.34 264.577 103.891 263.713 104.741 261.428L104.742 261.428ZM96.8584 268.651C95.4597 271.519 90.9845 269.258 88.9387 268.225C88.7555 268.132 88.5918 268.049 88.4515 267.981L91.1553 262.442C91.3267 262.525 91.5373 262.622 91.7759 262.731C93.9114 263.711 98.2878 265.719 96.8592 268.651L96.8584 268.651ZM92.8042 260.113C94.5102 260.98 98.229 262.869 99.5011 260.264C100.802 257.599 97.1489 255.935 95.3647 255.123C95.1641 255.032 94.9872 254.951 94.8435 254.881L92.3918 259.906C92.5103 259.963 92.6489 260.034 92.8042 260.113Z" fill="#F7931A"/>
<g filter="url(#filter3_bd_51_6766)">
<path d="M1139.79 221.001C1139.79 242.427 1122.42 259.796 1100.99 259.796C1079.57 259.796 1062.2 242.427 1062.2 221.001C1062.2 199.576 1079.57 182.207 1100.99 182.207C1122.42 182.207 1139.79 199.576 1139.79 221.001Z" fill="#717171" fill-opacity="0.2" shape-rendering="crispEdges"/>
</g>
<g opacity="0.8">
<path d="M1100.87 203L1100.63 203.815V227.448L1100.87 227.687L1111.84 221.203L1100.87 203Z" fill="white"/>
<path d="M1100.87 203L1089.9 221.203L1100.87 227.687V216.216V203Z" fill="white"/>
<path d="M1100.87 231.256L1100.74 231.421V239.84L1100.87 240.234L1111.85 224.775L1100.87 231.256Z" fill="white"/>
<path d="M1100.87 240.234V231.256L1089.9 224.775L1100.87 240.234Z" fill="white"/>
<path d="M1100.87 227.687L1111.84 221.203L1100.87 216.217V227.687Z" fill="white"/>
<path d="M1089.9 221.203L1100.87 227.687V216.217L1089.9 221.203Z" fill="white"/>
</g>
<g filter="url(#filter4_bd_51_6766)">
<path d="M981.832 782.001C981.832 799.031 968.026 812.837 950.995 812.837C933.965 812.837 920.159 799.031 920.159 782.001C920.159 764.97 933.965 751.164 950.995 751.164C968.026 751.164 981.832 764.97 981.832 782.001Z" fill="#3CC8C8" fill-opacity="0.2" shape-rendering="crispEdges"/>
</g>
<path fill-rule="evenodd" clip-rule="evenodd" d="M953.07 766.735C953.485 765.948 952.533 764.996 951.753 765.406C951.119 765.662 950.958 766.589 951.452 767.058C951.918 767.547 952.83 767.376 953.07 766.735ZM944.393 767.082C944.441 766.561 943.842 766.122 943.368 766.319C942.709 766.497 942.636 767.545 943.275 767.796C943.758 768.065 944.443 767.648 944.393 767.082ZM960.542 767.812C959.802 767.721 959.685 766.546 960.397 766.309C960.95 766.037 961.457 766.548 961.538 767.077C961.422 767.528 961.048 767.942 960.542 767.812ZM947.076 771.101C947.198 770.172 946.068 769.419 945.276 769.924C944.535 770.307 944.433 771.45 945.105 771.948C945.801 772.582 947.035 772.039 947.076 771.101ZM957.363 770.461C957.716 769.542 959.147 769.514 959.549 770.409C959.947 771.105 959.458 771.968 958.75 772.205C957.812 772.382 956.921 771.358 957.363 770.461ZM952.192 770.72C951.449 770.773 950.736 771.362 950.744 772.153C950.701 772.799 951.158 773.326 951.7 773.595C951.755 773.598 951.81 773.603 951.866 773.607C952.172 773.632 952.491 773.657 952.766 773.501C953.479 773.183 953.829 772.228 953.435 771.534C953.223 771.032 952.686 770.819 952.192 770.72ZM938.274 773.304C938.997 772.855 939.973 773.675 939.699 774.469C939.548 775.155 938.634 775.434 938.112 774.996C937.555 774.585 937.643 773.598 938.274 773.304ZM966.604 774.156C966.678 773.374 965.665 772.822 965.051 773.303C964.422 773.693 964.49 774.736 965.161 775.041C965.77 775.408 966.646 774.87 966.604 774.156ZM954.251 774.724C955.263 774.356 956.466 774.796 957.043 775.708C957.804 776.823 957.399 778.52 956.218 779.16C954.994 779.917 953.206 779.275 952.754 777.894C952.241 776.658 952.988 775.111 954.251 774.724ZM951.484 775.919C950.942 774.759 949.431 774.31 948.309 774.845C947.113 775.385 946.563 776.977 947.182 778.149C947.735 779.36 949.346 779.857 950.488 779.202C951.629 778.619 952.122 777.048 951.484 775.919ZM942.36 776.9C942.446 776.169 943.128 775.694 943.816 775.645C944.557 775.735 945.15 776.317 945.23 777.075C945.182 777.825 944.608 778.559 943.82 778.554C942.954 778.63 942.195 777.759 942.36 776.9ZM962.016 777.074C962.056 776.042 960.821 775.281 959.932 775.804C958.977 776.258 958.905 777.762 959.825 778.296C960.71 778.938 962.077 778.167 962.016 777.074ZM945.891 779.657C946.931 779.368 948.121 779.863 948.631 780.829C949.189 781.801 948.961 783.151 948.093 783.864C946.98 784.909 944.928 784.49 944.335 783.063C943.655 781.754 944.481 780.001 945.891 779.657ZM959.903 780.684C959.359 779.753 958.171 779.36 957.16 779.652C955.74 780.045 954.988 781.865 955.735 783.153C956.352 784.399 958.088 784.817 959.208 784.021C960.278 783.335 960.621 781.748 959.903 780.684ZM939.202 780.866C940.101 780.522 941.097 781.524 940.733 782.423C940.51 783.243 939.367 783.546 938.776 782.942C938.085 782.374 938.341 781.112 939.202 780.866ZM964.834 780.712C964.071 780.753 963.526 781.419 963.552 782.171C963.701 782.522 963.883 782.888 964.236 783.069C964.99 783.489 966.055 782.882 965.999 781.988C966.048 781.312 965.45 780.81 964.834 780.712ZM934.785 781.307C935.326 781.069 935.994 781.542 935.871 782.148C935.842 782.834 934.838 783.098 934.47 782.525C934.144 782.126 934.339 781.512 934.785 781.307ZM970.005 781.665C969.854 781.216 969.244 781.019 968.863 781.293C968.23 781.634 968.478 782.816 969.245 782.745C969.792 782.828 970.261 782.156 970.005 781.665ZM948.827 784.589C950.249 784.215 951.778 785.413 951.787 786.892C951.88 788.387 950.374 789.712 948.918 789.367C947.793 789.184 946.91 788.089 946.946 786.94C946.943 785.842 947.764 784.821 948.827 784.589ZM957.454 786.911C957.477 785.397 955.903 784.178 954.459 784.585C953.603 784.8 952.879 785.513 952.69 786.389C952.315 787.704 953.305 789.192 954.646 789.368C956.072 789.659 957.53 788.378 957.454 786.911ZM943.6 785.496C944.599 785.324 945.535 786.449 945.13 787.407C944.835 788.428 943.364 788.705 942.713 787.871C941.951 787.071 942.52 785.607 943.6 785.496ZM962.033 786.919C962.101 785.942 961.008 785.164 960.117 785.541C959.041 785.886 958.861 787.544 959.848 788.107C960.719 788.735 962.068 787.994 962.033 786.919ZM964.734 790.218C964.385 789.562 965.019 788.691 965.741 788.813C966.08 788.807 966.323 789.062 966.543 789.292L966.581 789.333L966.589 789.399C966.636 789.774 966.689 790.203 966.388 790.486C965.954 791.041 964.97 790.883 964.734 790.218ZM939.764 790.015C939.916 789.219 938.945 788.542 938.271 788.996C937.628 789.327 937.605 790.36 938.226 790.723C938.805 791.123 939.684 790.72 939.764 790.015ZM951.598 790.471C952.481 790.077 953.607 790.854 953.523 791.836C953.588 792.922 952.197 793.674 951.333 793.022C950.374 792.462 950.534 790.815 951.598 790.471ZM947.118 793.066C947.187 792.216 946.178 791.525 945.425 791.925C944.895 792.125 944.679 792.716 944.67 793.246C944.851 793.732 945.22 794.244 945.785 794.256C946.467 794.36 947.141 793.764 947.118 793.066ZM957.929 791.937C958.703 791.455 959.802 792.148 959.729 793.057C959.749 794.008 958.506 794.617 957.786 793.992C957.089 793.503 957.174 792.327 957.929 791.937ZM960.723 796.088C960.165 796.208 959.759 796.842 960.104 797.367C960.457 797.978 961.488 797.76 961.553 797.048C961.648 796.522 961.173 796.18 960.723 796.088ZM942.843 796.911C942.98 796.494 943.312 796.08 943.798 796.188C944.506 796.239 944.716 797.317 944.096 797.649C943.539 798.029 942.892 797.509 942.843 796.911ZM952.617 796.8C952.096 796.472 951.306 796.772 951.17 797.389C950.923 798.012 951.517 798.765 952.177 798.687C952.532 798.696 952.806 798.441 953.019 798.185C953.06 798.013 953.102 797.841 953.15 797.669L953.147 797.658C953.059 797.33 952.957 796.947 952.617 796.8Z" fill="#3CC8C8"/>
<g filter="url(#filter5_bd_51_6766)">
<path d="M1223.63 418.816C1223.63 438.044 1208.04 453.631 1188.82 453.631C1169.59 453.631 1154 438.044 1154 418.816C1154 399.588 1169.59 384 1188.82 384C1208.04 384 1223.63 399.588 1223.63 418.816Z" fill="white" fill-opacity="0.2" shape-rendering="crispEdges"/>
</g>
<path d="M1207.69 409.798C1207.23 408.105 1205.89 406.77 1204.18 406.313C1201.09 405.491 1188.69 405.491 1188.69 405.491C1188.69 405.491 1176.3 405.491 1173.2 406.313C1171.5 406.764 1170.15 408.099 1169.69 409.798C1168.87 412.869 1168.87 419.282 1168.87 419.282C1168.87 419.282 1168.87 425.694 1169.69 428.766C1170.15 430.458 1171.49 431.794 1173.2 432.251C1176.3 433.072 1188.69 433.072 1188.69 433.072C1188.69 433.072 1201.09 433.072 1204.18 432.251C1205.88 431.8 1207.23 430.465 1207.69 428.766C1208.51 425.694 1208.51 419.282 1208.51 419.282C1208.51 419.282 1208.51 412.869 1207.69 409.798Z" fill="#FF0000"/>
<path d="M1184.87 425.14L1195.42 419.282L1184.87 413.423V425.14Z" fill="white"/>
<g filter="url(#filter6_bd_51_6766)">
<path d="M102 496C120.778 496 136 480.778 136 462C136 443.222 120.778 428 102 428C83.2223 428 68 443.222 68 462C68 480.778 83.2223 496 102 496Z" fill="#767DFF" fill-opacity="0.2" shape-rendering="crispEdges"/>
</g>
<path fill-rule="evenodd" clip-rule="evenodd" d="M106.663 443.692H97.3369C96.6789 443.692 96.0719 444.037 95.7497 444.596L81.3087 469.655C80.9996 470.192 80.9996 470.847 81.3087 471.384L85.9279 479.403C86.2496 479.961 86.8566 480.308 87.5151 480.308H116.485C117.143 480.307 117.749 479.961 118.07 479.403L122.691 471.384C123 470.847 123 470.192 122.691 469.655L108.25 444.596C107.928 444.037 107.321 443.692 106.663 443.692ZM92.2702 470.519L102 453.662L111.73 470.519H92.2702Z" fill="#767DFF"/>
<g filter="url(#filter7_bd_51_6766)">
<path d="M274.198 171.178C278.711 183.567 272.326 197.266 259.936 201.775C247.546 206.285 233.844 199.897 229.331 187.509C224.818 175.12 231.203 161.422 243.593 156.912C255.982 152.403 269.685 158.79 274.198 171.178Z" fill="#00A478" fill-opacity="0.2" shape-rendering="crispEdges"/>
</g>
<path d="M249.321 179.788L247.891 175.864L242.568 177.801L241.315 174.361L256.19 168.947L257.461 172.436L252.138 174.373L253.55 178.249L249.321 179.788Z" fill="#00A478"/>
<path fill-rule="evenodd" clip-rule="evenodd" d="M241.868 182.995C241.392 181.686 245.282 179.063 250.605 177.126C255.928 175.189 260.595 174.697 261.071 176.005C261.548 177.313 257.658 179.936 252.335 181.874C247.012 183.811 242.345 184.303 241.868 182.995ZM260.275 176.295C259.751 175.937 256.318 175.486 250.746 177.514C245.174 179.542 242.818 182.045 242.664 182.705C243.189 183.063 246.339 182.739 251.911 180.711C257.533 178.665 260.104 176.906 260.275 176.295Z" fill="#00A478"/>
<path d="M253.991 179.46L253.002 176.747C252.288 176.952 251.524 177.175 250.778 177.447C250.082 177.7 249.435 177.936 248.806 178.22L249.794 180.933C250.391 180.715 251.105 180.51 251.802 180.257C252.566 180.034 253.312 179.762 253.991 179.46Z" fill="#00A478"/>
<path d="M252.335 181.874C251.638 182.127 250.991 182.362 250.327 182.549L252.957 189.768L257.136 188.247L254.488 180.98C253.809 181.282 253.081 181.602 252.335 181.874Z" fill="#00A478"/>
<defs>
<filter id="filter0_bd_51_6766" x="312.073" y="607.025" width="99.8546" height="99.8546" filterUnits="userSpaceOnUse" color-interpolation-filters="sRGB">
<feFlood flood-opacity="0" result="BackgroundImageFix"/>
<feGaussianBlur in="BackgroundImage" stdDeviation="3.69024"/>
<feComposite in2="SourceAlpha" operator="in" result="effect1_backgroundBlur_51_6766"/>
<feColorMatrix in="SourceAlpha" type="matrix" values="0 0 0 0 0 0 0 0 0 0 0 0 0 0 0 0 0 0 127 0" result="hardAlpha"/>
<feOffset dy="2.9522"/>
<feGaussianBlur stdDeviation="9.96366"/>
<feComposite in2="hardAlpha" operator="out"/>
<feColorMatrix type="matrix" values="0 0 0 0 0.290196 0 0 0 0 0.564706 0 0 0 0 0.886275 0 0 0 0.29 0"/>
<feBlend mode="normal" in2="effect1_backgroundBlur_51_6766" result="effect2_dropShadow_51_6766"/>
<feBlend mode="normal" in="SourceGraphic" in2="effect2_dropShadow_51_6766" result="shape"/>
</filter>
<filter id="filter1_bd_51_6766" x="1194.07" y="618.025" width="127.855" height="127.855" filterUnits="userSpaceOnUse" color-interpolation-filters="sRGB">
<feFlood flood-opacity="0" result="BackgroundImageFix"/>
<feGaussianBlur in="BackgroundImage" stdDeviation="3.69024"/>
<feComposite in2="SourceAlpha" operator="in" result="effect1_backgroundBlur_51_6766"/>
<feColorMatrix in="SourceAlpha" type="matrix" values="0 0 0 0 0 0 0 0 0 0 0 0 0 0 0 0 0 0 127 0" result="hardAlpha"/>
<feOffset dy="2.9522"/>
<feGaussianBlur stdDeviation="9.96366"/>
<feComposite in2="hardAlpha" operator="out"/>
<feColorMatrix type="matrix" values="0 0 0 0 0.776471 0 0 0 0 0.0980392 0 0 0 0 0.760784 0 0 0 0.29 0"/>
<feBlend mode="normal" in2="effect1_backgroundBlur_51_6766" result="effect2_dropShadow_51_6766"/>
<feBlend mode="normal" in="SourceGraphic" in2="effect2_dropShadow_51_6766" result="shape"/>
</filter>
<filter id="filter2_bd_51_6766" x="36.6826" y="209.817" width="112.849" height="112.851" filterUnits="userSpaceOnUse" color-interpolation-filters="sRGB">
<feFlood flood-opacity="0" result="BackgroundImageFix"/>
<feGaussianBlur in="BackgroundImage" stdDeviation="3.69024"/>
<feComposite in2="SourceAlpha" operator="in" result="effect1_backgroundBlur_51_6766"/>
<feColorMatrix in="SourceAlpha" type="matrix" values="0 0 0 0 0 0 0 0 0 0 0 0 0 0 0 0 0 0 127 0" result="hardAlpha"/>
<feOffset dy="2.9522"/>
<feGaussianBlur stdDeviation="9.96366"/>
<feComposite in2="hardAlpha" operator="out"/>
<feColorMatrix type="matrix" values="0 0 0 0 0.968627 0 0 0 0 0.57647 0 0 0 0 0.101961 0 0 0 0.29 0"/>
<feBlend mode="normal" in2="effect1_backgroundBlur_51_6766" result="effect2_dropShadow_51_6766"/>
<feBlend mode="normal" in="SourceGraphic" in2="effect2_dropShadow_51_6766" result="shape"/>
</filter>
<filter id="filter3_bd_51_6766" x="1042.27" y="165.232" width="117.443" height="117.444" filterUnits="userSpaceOnUse" color-interpolation-filters="sRGB">
<feFlood flood-opacity="0" result="BackgroundImageFix"/>
<feGaussianBlur in="BackgroundImage" stdDeviation="3.69024"/>
<feComposite in2="SourceAlpha" operator="in" result="effect1_backgroundBlur_51_6766"/>
<feColorMatrix in="SourceAlpha" type="matrix" values="0 0 0 0 0 0 0 0 0 0 0 0 0 0 0 0 0 0 127 0" result="hardAlpha"/>
<feOffset dy="2.9522"/>
<feGaussianBlur stdDeviation="9.96366"/>
<feComposite in2="hardAlpha" operator="out"/>
<feColorMatrix type="matrix" values="0 0 0 0 0.443137 0 0 0 0 0.443137 0 0 0 0 0.443137 0 0 0 0.29 0"/>
<feBlend mode="normal" in2="effect1_backgroundBlur_51_6766" result="effect2_dropShadow_51_6766"/>
<feBlend mode="normal" in="SourceGraphic" in2="effect2_dropShadow_51_6766" result="shape"/>
</filter>
<filter id="filter4_bd_51_6766" x="900.231" y="734.189" width="101.528" height="101.528" filterUnits="userSpaceOnUse" color-interpolation-filters="sRGB">
<feFlood flood-opacity="0" result="BackgroundImageFix"/>
<feGaussianBlur in="BackgroundImage" stdDeviation="3.69024"/>
<feComposite in2="SourceAlpha" operator="in" result="effect1_backgroundBlur_51_6766"/>
<feColorMatrix in="SourceAlpha" type="matrix" values="0 0 0 0 0 0 0 0 0 0 0 0 0 0 0 0 0 0 127 0" result="hardAlpha"/>
<feOffset dy="2.9522"/>
<feGaussianBlur stdDeviation="9.96366"/>
<feComposite in2="hardAlpha" operator="out"/>
<feColorMatrix type="matrix" values="0 0 0 0 0.235294 0 0 0 0 0.784314 0 0 0 0 0.784314 0 0 0 0.29 0"/>
<feBlend mode="normal" in2="effect1_backgroundBlur_51_6766" result="effect2_dropShadow_51_6766"/>
<feBlend mode="normal" in="SourceGraphic" in2="effect2_dropShadow_51_6766" result="shape"/>
</filter>
<filter id="filter5_bd_51_6766" x="1134.07" y="367.025" width="109.485" height="109.486" filterUnits="userSpaceOnUse" color-interpolation-filters="sRGB">
<feFlood flood-opacity="0" result="BackgroundImageFix"/>
<feGaussianBlur in="BackgroundImage" stdDeviation="3.69024"/>
<feComposite in2="SourceAlpha" operator="in" result="effect1_backgroundBlur_51_6766"/>
<feColorMatrix in="SourceAlpha" type="matrix" values="0 0 0 0 0 0 0 0 0 0 0 0 0 0 0 0 0 0 127 0" result="hardAlpha"/>
<feOffset dy="2.9522"/>
<feGaussianBlur stdDeviation="9.96366"/>
<feComposite in2="hardAlpha" operator="out"/>
<feColorMatrix type="matrix" values="0 0 0 0 1 0 0 0 0 1 0 0 0 0 1 0 0 0 0.29 0"/>
<feBlend mode="normal" in2="effect1_backgroundBlur_51_6766" result="effect2_dropShadow_51_6766"/>
<feBlend mode="normal" in="SourceGraphic" in2="effect2_dropShadow_51_6766" result="shape"/>
</filter>
<filter id="filter6_bd_51_6766" x="48.0727" y="411.025" width="107.855" height="107.855" filterUnits="userSpaceOnUse" color-interpolation-filters="sRGB">
<feFlood flood-opacity="0" result="BackgroundImageFix"/>
<feGaussianBlur in="BackgroundImage" stdDeviation="3.69024"/>
<feComposite in2="SourceAlpha" operator="in" result="effect1_backgroundBlur_51_6766"/>
<feColorMatrix in="SourceAlpha" type="matrix" values="0 0 0 0 0 0 0 0 0 0 0 0 0 0 0 0 0 0 127 0" result="hardAlpha"/>
<feOffset dy="2.9522"/>
<feGaussianBlur stdDeviation="9.96366"/>
<feComposite in2="hardAlpha" operator="out"/>
<feColorMatrix type="matrix" values="0 0 0 0 0.462745 0 0 0 0 0.490196 0 0 0 0 1 0 0 0 0.29 0"/>
<feBlend mode="normal" in2="effect1_backgroundBlur_51_6766" result="effect2_dropShadow_51_6766"/>
<feBlend mode="normal" in="SourceGraphic" in2="effect2_dropShadow_51_6766" result="shape"/>
</filter>
<filter id="filter7_bd_51_6766" x="207.955" y="138.491" width="87.619" height="87.6103" filterUnits="userSpaceOnUse" color-interpolation-filters="sRGB">
<feFlood flood-opacity="0" result="BackgroundImageFix"/>
<feGaussianBlur in="BackgroundImage" stdDeviation="3.69024"/>
<feComposite in2="SourceAlpha" operator="in" result="effect1_backgroundBlur_51_6766"/>
<feColorMatrix in="SourceAlpha" type="matrix" values="0 0 0 0 0 0 0 0 0 0 0 0 0 0 0 0 0 0 127 0" result="hardAlpha"/>
<feOffset dy="2.9522"/>
<feGaussianBlur stdDeviation="9.96366"/>
<feComposite in2="hardAlpha" operator="out"/>
<feColorMatrix type="matrix" values="0 0 0 0 0 0 0 0 0 0.643137 0 0 0 0 0.470588 0 0 0 0.29 0"/>
<feBlend mode="normal" in2="effect1_backgroundBlur_51_6766" result="effect2_dropShadow_51_6766"/>
<feBlend mode="normal" in="SourceGraphic" in2="effect2_dropShadow_51_6766" result="shape"/>
</filter>
<radialGradient id="paint0_radial_51_6766" cx="0" cy="0" r="1" gradientUnits="userSpaceOnUse" gradientTransform="translate(642.899 512.863) rotate(22.5318) scale(401.724 926.004)">
<stop stop-color="white" stop-opacity="0"/>
<stop offset="1" stop-color="white"/>
</radialGradient>
<radialGradient id="paint1_radial_51_6766" cx="0" cy="0" r="1" gradientUnits="userSpaceOnUse" gradientTransform="translate(630.398 526.755) rotate(22.5318) scale(583.677 1345.42)">
<stop stop-color="white" stop-opacity="0"/>
<stop offset="1" stop-color="white"/>
</radialGradient>
<radialGradient id="paint2_radial_51_6766" cx="0" cy="0" r="1" gradientUnits="userSpaceOnUse" gradientTransform="translate(615.184 543.659) rotate(22.5318) scale(805.081 1855.77)">
<stop stop-color="white" stop-opacity="0"/>
<stop offset="1" stop-color="white"/>
</radialGradient>
<linearGradient id="paint3_linear_51_6766" x1="1235.88" y1="712.014" x2="1286.43" y2="712.966" gradientUnits="userSpaceOnUse">
<stop stop-color="#DB00BC"/>
<stop offset="1" stop-color="#3AC0E9"/>
</linearGradient>
<linearGradient id="paint4_linear_51_6766" x1="1231.17" y1="711.201" x2="1281.72" y2="710.341" gradientUnits="userSpaceOnUse">
<stop stop-color="#DB00BC"/>
<stop offset="1" stop-color="#3AC0E9"/>
</linearGradient>
<linearGradient id="paint5_linear_51_6766" x1="1231.2" y1="708.773" x2="1281.75" y2="707.778" gradientUnits="userSpaceOnUse">
<stop stop-color="#DB00BC"/>
<stop offset="1" stop-color="#3AC0E9"/>
</linearGradient>
</defs>
</svg>
